<svg width="17" height="19" viewBox="0 0 17 19" fill="none" xmlns="http://www.w3.org/2000/svg">
<path d="M17 10.2308C17 11.4183 16.775 12.5525 16.3249 13.6334C15.8748 14.7143 15.2697 15.6468 14.5098 16.4309C13.7498 17.2149 12.8459 17.8391 11.7982 18.3035C10.7504 18.7678 9.65104 19 8.5 19C7.34896 19 6.24957 18.7678 5.20182 18.3035C4.15408 17.8391 3.25022 17.2149 2.49023 16.4309C1.73025 15.6468 1.12522 14.7143 0.67513 13.6334C0.225043 12.5525 0 11.4183 0 10.2308C0 8.84535 0.296983 7.53986 0.890951 6.3143C1.48492 5.08874 2.32053 4.0611 3.39779 3.23137C3.71506 2.98778 4.06738 2.89263 4.45475 2.94591C4.84212 2.9992 5.15017 3.1895 5.37891 3.51683C5.61502 3.83654 5.7054 4.19621 5.65006 4.59585C5.59473 4.99549 5.41211 5.31711 5.10221 5.5607C4.37912 6.124 3.8202 6.8129 3.42546 7.6274C3.03071 8.44191 2.83333 9.3097 2.83333 10.2308C2.83333 11.0224 2.98275 11.7779 3.28158 12.4973C3.5804 13.2166 3.98438 13.8389 4.49349 14.3642C5.0026 14.8894 5.60579 15.3062 6.30306 15.6145C7.00033 15.9228 7.73264 16.0769 8.5 16.0769C9.26736 16.0769 9.99967 15.9228 10.6969 15.6145C11.3942 15.3062 11.9974 14.8894 12.5065 14.3642C13.0156 13.8389 13.4196 13.2166 13.7184 12.4973C14.0173 11.7779 14.1667 11.0224 14.1667 10.2308C14.1667 9.3097 13.9693 8.44191 13.5745 7.6274C13.1798 6.8129 12.6209 6.124 11.8978 5.5607C11.5879 5.31711 11.4053 4.99549 11.3499 4.59585C11.2946 4.19621 11.385 3.83654 11.6211 3.51683C11.8498 3.1895 12.1597 2.9992 12.5508 2.94591C12.9418 2.89263 13.2923 2.98778 13.6022 3.23137C14.6795 4.0611 15.5151 5.08874 16.109 6.3143C16.703 7.53986 17 8.84535 17 10.2308ZM9.91667 1.46154V8.76923C9.91667 9.16506 9.77647 9.50761 9.49609 9.79688C9.21571 10.0861 8.88368 10.2308 8.5 10.2308C8.11632 10.2308 7.78429 10.0861 7.50391 9.79688C7.22352 9.50761 7.08333 9.16506 7.08333 8.76923V1.46154C7.08333 1.06571 7.22352 0.723157 7.50391 0.433894C7.78429 0.144631 8.11632 0 8.5 0C8.88368 0 9.21571 0.144631 9.49609 0.433894C9.77647 0.723157 9.91667 1.06571 9.91667 1.46154Z" fill="#1A1E2E"/>
</svg>
