<svg width="14" height="14" viewBox="0 0 14 14" fill="currentColor" xmlns="http://www.w3.org/2000/svg">
<path d="M0.777778 7.77778H5.44444C5.65072 7.77778 5.84855 7.69583 5.99442 7.54997C6.14028 7.40411 6.22222 7.20628 6.22222 7V0.777778C6.22222 0.571498 6.14028 0.373667 5.99442 0.227806C5.84855 0.0819442 5.65072 0 5.44444 0H0.777778C0.571498 0 0.373667 0.0819442 0.227806 0.227806C0.0819442 0.373667 0 0.571498 0 0.777778V7C0 7.20628 0.0819442 7.40411 0.227806 7.54997C0.373667 7.69583 0.571498 7.77778 0.777778 7.77778ZM0 13.2222C0 13.4285 0.0819442 13.6263 0.227806 13.7722C0.373667 13.9181 0.571498 14 0.777778 14H5.44444C5.65072 14 5.84855 13.9181 5.99442 13.7722C6.14028 13.6263 6.22222 13.4285 6.22222 13.2222V10.1111C6.22222 9.90483 6.14028 9.707 5.99442 9.56114C5.84855 9.41528 5.65072 9.33333 5.44444 9.33333H0.777778C0.571498 9.33333 0.373667 9.41528 0.227806 9.56114C0.0819442 9.707 0 9.90483 0 10.1111V13.2222ZM7.77778 13.2222C7.77778 13.4285 7.85972 13.6263 8.00558 13.7722C8.15145 13.9181 8.34928 14 8.55556 14H13.2222C13.4285 14 13.6263 13.9181 13.7722 13.7722C13.9181 13.6263 14 13.4285 14 13.2222V7.77778C14 7.5715 13.9181 7.37367 13.7722 7.22781C13.6263 7.08194 13.4285 7 13.2222 7H8.55556C8.34928 7 8.15145 7.08194 8.00558 7.22781C7.85972 7.37367 7.77778 7.5715 7.77778 7.77778V13.2222ZM8.55556 5.44444H13.2222C13.4285 5.44444 13.6263 5.3625 13.7722 5.21664C13.9181 5.07078 14 4.87295 14 4.66667V0.777778C14 0.571498 13.9181 0.373667 13.7722 0.227806C13.6263 0.0819442 13.4285 0 13.2222 0H8.55556C8.34928 0 8.15145 0.0819442 8.00558 0.227806C7.85972 0.373667 7.77778 0.571498 7.77778 0.777778V4.66667C7.77778 4.87295 7.85972 5.07078 8.00558 5.21664C8.15145 5.3625 8.34928 5.44444 8.55556 5.44444Z" fill="currentColor"/>
</svg>
