<svg width="503" height="409" viewBox="0 0 503 409" fill="none" xmlns="http://www.w3.org/2000/svg">
<g clip-path="url(#clip0_44_169)">
<path d="M258.019 347.32C257.894 346.693 257.142 343.813 254.885 342.936C253.004 342.184 251.876 343.562 248.867 343.687C246.234 343.813 243.1 342.936 241.345 341.182C239.715 339.554 239.715 337.55 239.84 330.912C239.84 313.878 239.464 316.383 239.84 310.621C240.091 305.736 240.342 305.235 239.966 303.607C238.712 298.347 234.324 295.09 230.563 292.335C224.545 287.826 218.777 286.323 217.524 286.072C213.261 284.945 205.237 283.066 198.718 286.824C195.583 288.702 191.822 291.207 192.7 295.967C193.828 302.355 200.974 301.227 201.601 300.977C204.359 299.85 210.377 297.595 214.891 298.096C216.897 298.347 221.16 300.351 222.037 301.227C225.046 304.233 226.927 309.369 225.046 311.373C224.043 312.5 222.162 312.5 221.912 312.375C219.53 311.623 219.028 311.247 218.025 310.621C213.762 307.866 207.368 309.243 206.365 309.619C200.724 311.122 197.84 315.13 196.461 316.884C192.7 322.019 192.324 327.279 192.198 329.659C192.073 332.039 191.571 340.055 197.464 347.069C201.977 352.455 209.5 356.338 216.145 355.336C219.154 354.96 222.539 354.459 225.673 351.954C227.177 350.701 228.306 349.324 230.312 349.324C231.942 349.198 233.195 350.2 234.825 351.328C239.84 354.96 242.473 356.713 243.476 357.214C246.485 358.467 251.375 358.968 254.76 356.087C257.016 354.208 258.772 350.701 258.019 347.32ZM218.652 337.299C214.389 339.429 208.622 338.302 205.989 334.669C203.607 331.287 204.736 327.279 204.986 326.027C205.237 325.15 206.491 320.265 211.255 318.261C212.133 317.886 215.643 316.508 219.279 318.387C222.664 320.265 223.542 323.772 223.667 324.273C225.297 329.534 223.04 335.045 218.652 337.299Z" fill="#1B4DB1"/>
<path d="M370.981 229.835C370.856 228.833 369.728 223.697 365.841 221.944C362.581 220.441 360.575 222.695 355.31 222.695C350.671 222.695 345.28 220.942 342.396 217.685C339.638 214.679 340.014 211.298 340.515 199.774C342.02 170.215 341.142 174.599 342.145 164.579C343.023 156.062 343.399 155.311 342.898 152.43C341.017 143.036 333.871 137.275 327.602 132.139C317.447 123.873 307.542 120.867 305.411 120.115C298.139 117.861 284.348 113.853 272.688 119.99C267.046 122.871 260.402 127.004 261.405 135.271C262.784 146.418 275.196 145.04 276.449 144.664C281.339 142.911 291.996 139.529 299.644 140.782C303.029 141.408 310.426 145.291 311.805 146.919C316.694 152.305 319.578 161.448 316.193 164.83C314.438 166.583 311.178 166.458 310.676 166.333C306.539 164.955 305.661 164.203 304.032 162.951C296.76 157.816 285.727 159.82 283.846 160.195C273.942 162.325 268.551 169.088 266.169 171.969C259.148 180.486 258.145 189.629 257.643 193.762C257.267 197.896 255.763 211.799 265.166 224.449C272.563 234.218 285.226 241.483 296.885 240.356C302.151 239.855 308.044 239.228 313.685 235.346C316.444 233.467 318.575 231.087 321.96 231.087C324.844 231.087 326.85 232.715 329.733 234.97C338.259 241.608 342.396 244.99 344.277 245.867C349.292 248.246 357.817 249.499 364.086 244.99C368.725 241.733 372.11 235.721 370.981 229.835ZM303.53 209.294C295.882 212.675 285.978 210.17 281.715 203.657C277.828 197.645 280.085 190.756 280.837 188.502C281.339 186.999 283.972 178.607 292.372 175.601C293.876 175.1 300.145 172.846 306.163 176.478C311.93 179.985 313.184 186.122 313.309 187.124C315.942 196.267 311.554 205.661 303.53 209.294Z" fill="#1B4DB1"/>
<path d="M223.792 229.835C223.667 228.833 222.539 223.697 218.652 221.944C215.392 220.441 213.386 222.695 208.121 222.695C203.482 222.695 198.091 220.942 195.207 217.685C192.449 214.679 192.825 211.298 193.327 199.774C194.831 170.215 193.953 174.599 194.956 164.579C195.834 156.062 196.21 155.311 195.709 152.43C193.828 143.036 186.682 137.275 180.413 132.139C170.258 123.873 160.353 120.867 158.222 120.115C150.95 117.861 137.159 113.853 125.499 119.99C119.857 122.871 113.213 127.004 114.216 135.271C115.595 146.418 128.007 145.04 129.26 144.664C134.15 142.911 144.807 139.529 152.455 140.782C155.84 141.408 163.237 145.291 164.616 146.919C169.505 152.305 172.389 161.448 169.004 164.83C167.249 166.583 163.989 166.458 163.488 166.333C159.35 164.955 158.473 164.203 156.843 162.951C149.571 157.816 138.538 159.82 136.658 160.195C126.753 162.325 121.362 169.088 118.98 171.969C111.959 180.486 110.956 189.629 110.454 193.762C110.078 197.896 108.574 211.799 117.977 224.449C125.374 234.218 138.037 241.483 149.696 240.356C154.962 239.855 160.855 239.228 166.497 235.346C169.255 233.467 171.386 231.087 174.771 231.087C177.655 231.087 179.661 232.715 182.544 234.97C191.07 241.608 195.207 244.99 197.088 245.867C202.103 248.246 210.628 249.499 216.897 244.99C221.536 241.733 224.921 235.721 223.792 229.835ZM156.467 209.294C148.819 212.675 138.914 210.17 134.652 203.657C130.765 197.645 133.022 190.756 133.774 188.502C134.275 186.999 136.908 178.607 145.308 175.601C146.813 175.1 153.082 172.846 159.099 176.478C164.867 179.985 166.12 186.122 166.246 187.124C168.753 196.267 164.365 205.661 156.467 209.294Z" fill="#1B4DB1"/>
<path d="M373.614 353.081C373.489 352.455 372.862 349.574 370.605 348.572C368.725 347.695 367.596 348.948 364.587 348.948C361.954 348.948 358.82 347.946 357.19 346.067C355.686 344.314 355.811 342.435 356.187 335.797C357.065 318.762 356.563 321.267 357.19 315.506C357.692 310.621 356.939 292.209 355.811 284.569C355.059 279.559 353.178 265.03 348.539 265.406C335.501 266.533 339.763 286.573 340.265 294.088C340.641 299.474 344.151 313.627 342.271 315.631C341.268 316.633 339.387 316.508 339.136 316.508C337.256 316.383 336.002 315.13 335.25 314.629C331.238 311.498 324.718 312.75 323.715 313.001C318.074 314.253 314.939 318.136 313.56 319.764C309.548 324.649 308.921 329.91 308.67 332.289C308.42 334.669 307.542 342.685 313.059 349.95C317.321 355.586 324.593 359.719 331.363 359.093C334.372 358.843 337.757 358.467 341.017 356.212C342.647 355.085 343.775 353.707 345.781 353.707C347.411 353.707 348.665 354.709 350.295 355.962C355.184 359.845 357.566 361.723 358.695 362.224C361.578 363.602 366.468 364.354 370.104 361.723C372.235 359.97 374.241 356.588 373.614 353.081ZM334.748 341.308C330.36 343.312 324.593 341.809 322.211 338.051C319.954 334.669 321.333 330.536 321.709 329.283C321.96 328.407 323.59 323.647 328.354 321.894C329.232 321.643 332.868 320.265 336.253 322.395C339.638 324.399 340.265 328.031 340.39 328.532C341.769 333.792 339.262 339.178 334.748 341.308Z" fill="#1B4DB1"/>
<path d="M95.2842 21.6683C86.1319 14.028 71.5885 10.3958 42.3764 3.38174C24.3226 -1.00203 17.1763 -1.00203 11.4091 2.75548C2.25677 8.64225 0.125417 24.0481 4.33223e-05 31.9388C-0.376078 51.3527 7.14635 206.663 13.1643 225.701C17.5524 239.98 25.7017 242.61 34.4779 239.479C39.4928 237.725 41.6242 231.839 43.0033 227.831C49.3973 208.918 38.2391 197.52 43.1287 174.098C44.257 168.337 45.8869 164.83 48.269 161.824C54.9138 153.432 65.5706 152.054 69.5825 151.303C90.52 146.919 110.454 119.865 116.598 96.4428C123.117 70.8917 116.096 39.2034 95.2842 21.6683ZM62.4362 112.475C57.2959 117.485 47.0152 124.374 41.7495 120.992C37.9883 118.612 33.851 59.6192 38.8659 56.4879C46.3884 51.8537 71.2124 65.6312 73.2184 85.9218C74.7229 99.9498 64.5676 110.346 62.4362 112.475Z" fill="#1B4DB1"/>
<path d="M196.21 78.1563C190.568 75.6513 183.673 77.53 179.285 80.6613C178.156 81.4128 171.386 86.2976 172.264 92.6853C173.016 98.0711 179.034 101.578 183.422 102.58C190.318 104.208 193.828 100.075 198.341 102.204C202.98 104.459 204.109 111.348 204.61 114.98C207.494 136.273 207.619 169.84 209.625 191.884C210.252 198.898 216.019 205.035 219.78 206.037C224.294 207.29 231.315 200.902 232.569 193.762C234.7 181.613 233.321 174.975 227.428 132.264C225.548 118.737 224.294 110.596 229.56 105.336C233.572 101.328 240.718 99.6994 246.485 101.202C256.766 103.833 258.27 114.729 265.166 114.479C270.306 114.228 275.572 107.841 275.948 102.079C276.7 92.1843 263.536 84.0431 254.384 81.4128C244.73 78.6573 232.318 79.9098 222.539 85.1703C216.019 88.6773 213.512 92.3096 209.249 91.4328C202.98 89.9298 203.607 81.4128 196.21 78.1563Z" fill="#1B4DB1"/>
<path d="M108.95 250.376C97.4155 242.36 77.7318 236.723 65.1944 243.988C42.251 257.264 47.1406 310.621 67.3258 344.188C70.4601 349.324 88.514 379.509 106.317 375.626C119.983 372.62 125.75 351.328 126.001 350.075C126.251 348.948 130.514 332.039 123.869 328.281C119.481 325.776 113.463 327.279 111.457 335.295C109.326 344.188 102.681 349.324 99.1707 349.825C93.4035 350.701 85.505 330.16 84.3766 327.154C79.1109 313.752 70.9616 270.416 77.7318 267.911C83.1229 265.907 99.2961 273.422 103.559 281.313C105.565 284.945 105.816 288.076 109.451 291.458C110.078 292.084 115.469 297.094 119.607 295.716C125.374 293.838 127.38 279.81 123.869 269.038C120.484 258.642 112.46 252.881 108.95 250.376Z" fill="#1B4DB1"/>
<path d="M134.652 303.357C134.025 305.611 134.526 326.904 135.78 334.92C137.284 343.813 137.034 353.081 142.299 358.843C145.308 362.099 150.449 364.604 154.586 363.978C167.249 362.35 165.117 353.958 171.135 355.21C172.013 355.336 173.392 355.711 174.897 357.715C178.658 362.35 183.171 366.232 185.804 365.982C188.312 365.731 192.825 361.598 192.324 357.34C191.697 351.954 177.655 354.083 179.285 333.667C180.413 319.639 178.783 314.504 182.544 307.74C187.81 298.096 173.016 294.339 168.126 299.724C165.619 302.48 166.497 320.641 165.619 327.405C164.741 333.667 164.616 344.94 160.353 345.817C152.831 347.32 150.825 340.932 149.446 333.542C147.941 325.025 149.571 316.884 151.452 308.868C152.455 304.484 150.574 300.225 147.314 298.221C142.675 295.341 135.905 297.971 134.652 303.357Z" fill="#1B4DB1"/>
<path d="M300.723 332.63C301.35 330.376 300.848 309.083 299.595 301.067C298.09 292.174 298.341 282.906 293.075 277.144C290.066 273.888 284.926 271.383 280.789 272.009C268.126 273.637 270.257 282.029 264.239 280.776C263.362 280.651 261.982 280.275 260.478 278.271C256.717 273.637 252.203 269.754 249.57 270.005C247.063 270.255 242.549 274.389 243.051 278.647C243.678 284.033 257.72 281.904 256.09 302.32C254.961 316.348 256.591 321.483 252.83 328.246C247.564 337.891 262.359 341.648 267.248 336.262C269.756 333.507 268.878 315.346 269.756 308.582C270.633 302.32 270.759 291.047 275.021 290.17C282.544 288.667 284.55 295.055 285.929 302.445C287.433 310.962 285.803 319.103 283.923 327.119C282.92 331.503 284.8 335.761 288.06 337.765C292.699 340.646 299.469 338.016 300.723 332.63Z" fill="#1B4DB1"/>
<path d="M406.838 302.856C400.57 292.46 385.775 285.822 374.617 291.708C362.331 298.221 362.707 315.756 366.217 325.401C367.22 328.156 370.354 337.049 379.632 340.681C380.134 340.806 389.161 344.314 397.686 339.93C409.22 333.918 414.611 315.756 406.838 302.856ZM392.546 324.774C388.534 327.405 382.641 326.778 379.632 323.397C376.874 320.265 377.626 316.132 377.877 314.88C378.002 314.003 378.88 308.993 383.393 306.613C384.146 306.237 387.531 304.359 391.292 305.862C394.928 307.365 396.056 310.746 396.307 311.373C398.564 316.383 396.808 322.144 392.546 324.774Z" fill="#1B4DB1"/>
<path d="M396.432 158.191C404.331 139.278 402.575 132.515 408.468 124.123C409.471 122.62 415.364 114.604 425.519 112.099C436.426 109.469 445.704 114.729 451.722 118.111C457.991 121.743 472.283 129.759 472.91 142.159C473.412 151.678 465.513 158.818 456.737 166.834C450.719 172.345 438.558 181.613 423.262 189.88C419.376 192.009 417.244 192.886 415.364 195.516C410.349 202.405 414.611 209.92 417.871 227.079C422.385 250.626 419.626 263.777 428.653 268.787C430.408 269.789 432.038 270.165 433.041 270.416C441.441 272.294 477.298 263.151 478.552 259.394C479.304 257.264 477.173 255.26 474.164 251.503C469.149 245.24 465.764 238.727 458.994 225.576C453.227 214.304 450.343 208.542 452.098 203.156C453.853 197.896 458.367 195.766 464.134 192.134C477.424 183.742 491.466 171.092 497.609 159.945C506.009 144.664 502.248 127.755 501.746 125.501C493.973 92.8106 453.352 82.1643 447.334 80.6613C437.555 78.1563 420.755 73.7725 402.45 81.6633C371.984 94.8146 366.593 129.634 365.716 135.02C364.462 143.036 362.33 156.563 370.48 163.452C375.745 167.961 385.525 169.714 391.292 165.706C394.05 163.577 395.178 161.072 396.432 158.191Z" fill="#1B4DB1"/>
<path d="M458.492 286.448C467.895 283.191 476.045 288.953 478.301 290.581C481.06 292.46 486.074 295.967 486.952 302.104C488.206 310.371 480.934 316.383 480.182 317.009C473.286 322.52 463.507 322.144 456.612 318.512C455.233 317.76 446.08 313.001 445.579 303.607C445.203 295.591 451.722 288.828 458.492 286.448Z" fill="#1B4DB1"/>
<path d="M203.733 273.798C203.733 270.29 213.637 263.402 220.783 260.02C226.174 257.515 230.939 255.26 233.446 258.517C235.201 260.771 235.828 265.531 234.198 267.911C231.189 272.67 225.297 267.911 217.398 275.05C215.392 276.804 209.75 279.183 206.992 278.557C204.485 277.931 203.607 275.676 203.733 273.798Z" fill="#1B4DB1"/>
</g>
<defs>
<clipPath id="clip0_44_169">
<rect width="503" height="409" fill="white"/>
</clipPath>
</defs>
</svg>
