<svg width="23" height="25" viewBox="0 0 23 25" fill="none" xmlns="http://www.w3.org/2000/svg">
<path d="M14.8541 14.5834H14.097L13.8287 14.3021C14.4276 13.5458 14.8653 12.655 15.1105 11.6934C15.3557 10.7318 15.4023 9.72311 15.247 8.73962C14.7966 5.84378 12.5732 3.53128 9.88992 3.17712C8.94655 3.04739 7.98838 3.15396 7.08873 3.48867C6.18908 3.82337 5.3718 4.37735 4.69942 5.10819C4.02704 5.83904 3.51739 6.72739 3.20946 7.70527C2.90153 8.68315 2.80349 9.72463 2.92283 10.75C3.24866 13.6667 5.37617 16.0834 8.04033 16.573C8.94515 16.7418 9.8731 16.6911 10.7578 16.4246C11.6425 16.158 12.4621 15.6823 13.1578 15.0313L13.4166 15.323V16.1459L17.4895 20.573C17.8824 21 18.5245 21 18.9174 20.573C19.3103 20.1459 19.3103 19.448 18.9174 19.0209L14.8541 14.5834ZM9.10408 14.5834C6.71783 14.5834 4.79158 12.4896 4.79158 9.89587C4.79158 7.30212 6.71783 5.20837 9.10408 5.20837C11.4903 5.20837 13.4166 7.30212 13.4166 9.89587C13.4166 12.4896 11.4903 14.5834 9.10408 14.5834Z" fill="#6E6A6C"/>
</svg>
