<svg width="198" height="149" viewBox="0 0 198 149" fill="none" xmlns="http://www.w3.org/2000/svg">
<path d="M107.983 96.7533C107.951 96.5933 107.76 95.8571 107.186 95.6331C106.708 95.4411 106.421 95.7931 105.656 95.8251C104.987 95.8571 104.19 95.6331 103.743 95.185C103.329 94.7689 103.329 94.2568 103.361 92.5605C103.361 88.2077 103.265 88.8478 103.361 87.3755C103.425 86.1272 103.488 85.9992 103.393 85.5831C103.074 84.2389 101.958 83.4067 101.002 82.7026C99.4721 81.5504 98.0058 81.1663 97.6871 81.1023C96.6033 80.8142 94.5633 80.3341 92.9058 81.2943C92.1089 81.7744 91.1527 82.4145 91.3758 83.6308C91.6627 85.2631 93.4796 84.975 93.6389 84.911C94.3402 84.623 95.8702 84.0468 97.0177 84.1749C97.5277 84.2389 98.6115 84.751 98.8346 84.975C99.5996 85.7432 100.078 87.0554 99.5996 87.5675C99.3446 87.8556 98.8665 87.8556 98.8027 87.8236C98.1971 87.6315 98.0696 87.5355 97.8146 87.3755C96.7308 86.6714 95.1052 87.0234 94.8502 87.1194C93.4158 87.5035 92.6827 88.5277 92.332 88.9758C91.3758 90.2881 91.2802 91.6323 91.2483 92.2404C91.2164 92.8486 91.0889 94.897 92.587 96.6893C93.7346 98.0656 95.6471 99.0578 97.3365 98.8017C98.1015 98.7057 98.9621 98.5777 99.759 97.9376C100.141 97.6175 100.428 97.2654 100.938 97.2654C101.353 97.2334 101.672 97.4895 102.086 97.7775C103.361 98.7057 104.03 99.1538 104.285 99.2818C105.05 99.6019 106.293 99.7299 107.154 98.9938C107.728 98.5137 108.174 97.6175 107.983 96.7533ZM97.974 94.8329C96.8902 95.377 95.4239 95.089 94.7546 94.1608C94.1489 93.2966 94.4358 92.2724 94.4996 91.9524C94.5633 91.7283 94.8821 90.4801 96.0933 89.968C96.3165 89.872 97.209 89.5199 98.1333 90C98.994 90.4801 99.2171 91.3763 99.249 91.5043C99.6952 92.8486 99.1215 94.2568 97.974 94.8329Z" fill="white"/>
<path d="M136.734 66.7315C136.702 66.4754 136.415 65.1632 135.427 64.7151C134.598 64.331 134.088 64.9071 132.75 64.9071C131.57 64.9071 130.2 64.459 129.467 63.6269C128.765 62.8587 128.861 61.9946 128.988 59.05C129.371 51.4965 129.148 52.6167 129.403 50.0562C129.626 47.8798 129.722 47.6878 129.594 46.9516C129.116 44.5512 127.299 43.0789 125.705 41.7666C123.123 39.6542 120.605 38.8861 120.063 38.694C118.215 38.1179 114.708 37.0937 111.744 38.662C110.31 39.3982 108.62 40.4544 108.875 42.5668C109.226 45.4153 112.381 45.0633 112.7 44.9672C113.943 44.5192 116.653 43.655 118.597 43.975C119.458 44.1351 121.338 45.1273 121.689 45.5434C122.932 46.9196 123.665 49.2561 122.805 50.1203C122.358 50.5683 121.53 50.5363 121.402 50.5043C120.35 50.1523 120.127 49.9602 119.713 49.6402C117.864 48.3279 115.059 48.84 114.581 48.936C112.063 49.4801 110.692 51.2085 110.086 51.9446C108.301 54.121 108.046 56.4575 107.919 57.5137C107.823 58.5699 107.441 62.1226 109.831 65.3552C111.712 67.8517 114.931 69.7081 117.896 69.42C119.235 69.292 120.733 69.132 122.167 68.1398C122.868 67.6597 123.41 67.0516 124.271 67.0516C125.004 67.0516 125.514 67.4676 126.247 68.0437C128.415 69.7401 129.467 70.6042 129.945 70.8283C131.22 71.4364 133.387 71.7565 134.981 70.6042C136.128 69.7721 136.989 68.2358 136.734 66.7315ZM119.585 62.7627C117.641 63.6269 115.123 62.9868 114.039 61.3224C113.051 59.7861 113.625 58.0258 113.816 57.4497C113.943 57.0656 114.613 54.9212 116.748 54.153C117.131 54.025 118.725 53.4489 120.255 54.3771C121.721 55.2733 122.04 56.8416 122.071 57.0976C122.709 59.4341 121.593 61.8345 119.585 62.7627Z" fill="white"/>
<path d="M99.3122 66.7315C99.2804 66.4754 98.9935 65.1632 98.0054 64.7151C97.1766 64.331 96.6666 64.9071 95.3278 64.9071C94.1484 64.9071 92.7778 64.459 92.0447 63.6269C91.3434 62.8587 91.4391 61.9946 91.5666 59.05C91.9491 51.4965 91.7259 52.6167 91.9809 50.0562C92.2041 47.8798 92.2997 47.6878 92.1722 46.9516C91.6941 44.5512 89.8772 43.0789 88.2834 41.7666C85.7015 39.6542 83.1834 38.8861 82.6415 38.694C80.7927 38.1179 77.2864 37.0937 74.322 38.662C72.8876 39.3982 71.1982 40.4544 71.4532 42.5668C71.8039 45.4153 74.9595 45.0633 75.2783 44.9672C76.5214 44.5192 79.2308 43.655 81.1752 43.975C82.0358 44.1351 83.9165 45.1273 84.2671 45.5434C85.5102 46.9196 86.2434 49.2561 85.3827 50.1203C84.9365 50.5683 84.1077 50.5363 83.9802 50.5043C82.9284 50.1523 82.7052 49.9602 82.2908 49.6402C80.4421 48.3279 77.637 48.84 77.1589 48.936C74.6408 49.4801 73.2701 51.2085 72.6645 51.9446C70.8795 54.121 70.6245 56.4575 70.497 57.5137C70.4014 58.5699 70.0189 62.1226 72.4095 65.3552C74.2901 67.8517 77.5096 69.7081 80.474 69.42C81.8127 69.292 83.3109 69.132 84.7452 68.1398C85.4465 67.6597 85.9884 67.0516 86.849 67.0516C87.5821 67.0516 88.0921 67.4676 88.8253 68.0437C90.9928 69.7401 92.0447 70.6042 92.5228 70.8283C93.7978 71.4364 95.9653 71.7565 97.5591 70.6042C98.7066 69.7721 99.5672 68.2358 99.3122 66.7315ZM82.1633 62.7627C80.219 63.6269 77.7008 62.9868 76.617 61.3224C75.6289 59.7861 76.2027 58.0258 76.3939 57.4497C76.5214 57.0656 77.1908 54.9212 79.3264 54.153C79.7089 54.025 81.3027 53.4489 82.8327 54.3771C84.299 55.2733 84.6177 56.8416 84.6496 57.0976C85.2871 59.4341 84.1715 61.8345 82.1633 62.7627Z" fill="white"/>
<path d="M137.371 98.2256C137.339 98.0656 137.18 97.3294 136.606 97.0734C136.128 96.8493 135.841 97.1694 135.076 97.1694C134.407 97.1694 133.61 96.9133 133.196 96.4332C132.813 95.9852 132.845 95.5051 132.941 93.8087C133.164 89.4559 133.036 90.096 133.196 88.6237C133.323 87.3755 133.132 82.6706 132.845 80.7182C132.654 79.4379 132.176 75.7252 130.996 75.8212C127.681 76.1093 128.765 81.2303 128.892 83.1507C128.988 84.5269 129.881 88.1436 129.402 88.6557C129.147 88.9118 128.669 88.8798 128.606 88.8798C128.127 88.8478 127.809 88.5277 127.617 88.3997C126.597 87.5995 124.94 87.9196 124.685 87.9836C123.25 88.3037 122.454 89.2959 122.103 89.7119C121.083 90.9602 120.924 92.3044 120.86 92.9126C120.796 93.5207 120.573 95.5691 121.975 97.4254C123.059 98.8657 124.908 99.9219 126.629 99.7619C127.394 99.6979 128.255 99.6019 129.084 99.0258C129.498 98.7377 129.785 98.3856 130.295 98.3856C130.709 98.3856 131.028 98.6417 131.442 98.9617C132.686 99.9539 133.291 100.434 133.578 100.562C134.311 100.914 135.554 101.106 136.479 100.434C137.021 99.9859 137.531 99.1218 137.371 98.2256ZM127.49 96.1772C126.374 96.6893 124.908 96.3052 124.302 95.345C123.729 94.4809 124.079 93.4247 124.175 93.1046C124.239 92.8806 124.653 91.6643 125.864 91.2162C126.087 91.1522 127.012 90.8001 127.872 91.3443C128.733 91.8564 128.892 92.7845 128.924 92.9126C129.498 95.025 128.446 95.7291 127.49 96.1772Z" fill="white"/>
<path d="M66.6408 13.537C64.3139 11.5847 60.6164 10.6565 53.1894 8.86413C48.5675 7.74391 46.7825 7.74391 45.3162 8.7041C42.9893 10.2084 42.4474 14.1452 42.4156 16.1616C42.3199 21.1225 44.2324 60.8103 45.7306 65.6752C46.8462 69.3239 48.9181 69.9961 51.1494 69.1959C52.4244 68.7478 52.9663 67.2435 53.3169 66.2193C54.9425 61.3864 52.1056 58.4738 53.3488 52.4886C53.6357 51.0164 54.05 50.1202 54.6557 49.352C56.3451 47.2076 59.0545 46.8555 60.0745 46.6635C65.4614 45.5433 70.5296 38.6299 72.0596 32.6448C73.7171 26.1155 71.9002 18.0179 66.6408 13.537ZM58.2576 36.7416C56.9507 38.0218 54.3369 39.7822 52.9982 38.918C52.0419 38.3099 50.99 23.2349 52.265 22.4348C54.1775 21.2505 60.4888 24.7712 60.9989 29.9562C61.3814 33.5409 58.7995 36.1975 58.2576 36.7416Z" fill="white"/>
<path d="M92.2682 27.9719C90.8338 27.3318 89.0807 27.8119 87.9651 28.612C87.6782 28.8041 85.9569 30.0523 86.1801 31.6846C86.3713 33.0609 87.9013 33.9571 89.017 34.2131C90.7701 34.6292 91.6626 33.573 92.8101 34.1171C93.9895 34.6932 94.2764 36.4536 94.4039 37.3818C95.137 42.8228 95.1689 51.4005 95.6789 57.0336C95.8383 58.8259 97.3045 60.3942 98.2608 60.6503C99.4083 60.9704 102.851 60.4583 103.329 58.1218C103.966 55.0492 102.277 52.8728 100.811 41.9907C100.333 38.534 99.7589 36.8697 101.066 35.5254C102.086 34.5012 103.616 33.509 105.082 33.8931C107.696 34.5652 108.078 37.3498 109.832 37.2857C111.138 37.2217 112.477 35.5894 112.573 34.1171C112.764 31.5886 109.417 29.5082 107.09 28.8361C104.636 28.132 102.181 28.0999 99.6952 29.4442C98.0377 30.3404 97.9739 31.3326 96.8902 31.0765C95.2645 30.6925 94.1808 28.8041 92.2682 27.9719Z" fill="white"/>
<path d="M70.0833 71.9805C67.1508 69.9321 62.1464 68.4918 58.9588 70.3482C53.1256 73.7408 54.3688 87.3755 59.5007 95.9532C60.2976 97.2654 64.8876 104.979 69.4139 103.987C72.8883 103.219 74.3546 97.7775 74.4183 97.4574C74.4821 97.1694 75.5658 92.8486 73.8765 91.8884C72.7608 91.2482 71.2308 91.6323 70.7208 93.6807C70.1789 95.9532 68.4895 97.2654 67.597 97.3934C66.1308 97.6175 64.1226 92.3685 63.8357 91.6003C62.497 88.1756 60.4251 77.1015 62.1464 76.4614C63.517 75.9493 67.6289 77.8696 68.7127 79.886C69.2227 80.8142 69.2864 81.6144 70.2108 82.4785C70.3702 82.6386 71.7408 83.9188 72.7927 83.5667C74.259 83.0866 74.769 79.5019 73.8765 76.7494C73.0477 74.0929 70.9758 72.6206 70.0833 71.9805Z" fill="white"/>
<path d="M76.6174 85.5191C76.4581 86.0953 76.5856 91.5363 76.9043 93.5847C77.2868 95.8572 77.2231 98.2256 78.5618 99.6979C79.3268 100.53 80.6337 101.17 81.6856 101.01C84.905 100.594 84.3631 98.4497 85.8932 98.7697C86.1163 98.8017 86.4669 98.8978 86.8494 99.4099C87.8057 100.594 88.9532 101.586 89.6226 101.522C90.2601 101.458 91.4076 100.402 91.2801 99.3138C91.1207 97.9376 87.5507 98.4817 87.965 93.2647C88.2519 89.68 87.8375 88.3677 88.7938 86.6394C90.1326 84.1749 86.3713 83.2147 85.1281 84.591C84.4906 85.2951 84.7138 89.936 84.4906 91.6643C84.2675 93.2647 84.2356 96.1452 83.1519 96.3693C81.2394 96.7533 80.7294 95.121 80.3787 93.2326C79.9962 91.0562 80.4106 88.9758 80.8887 86.9274C81.1437 85.8072 80.6656 84.719 79.8368 84.2069C78.6575 83.4708 76.9681 84.1429 76.6174 85.5191Z" fill="white"/>
<path d="M119.044 92.3045C119.171 91.6964 118.852 86.3193 118.438 84.2389C117.992 81.9665 117.928 79.63 116.525 78.1897C115.729 77.3896 114.422 76.8135 113.338 77.0055C110.15 77.5496 110.788 79.662 109.226 79.406C109.003 79.374 108.652 79.2779 108.238 78.8298C107.218 77.6776 106.038 76.7494 105.401 76.8455C104.763 76.9415 103.68 78.0297 103.839 79.1179C104.062 80.4942 107.6 79.822 107.377 85.0391C107.218 88.6238 107.696 89.904 106.803 91.6964C105.56 94.2248 109.353 95.025 110.533 93.5847C111.138 92.8486 110.724 88.2397 110.883 86.4793C111.043 84.847 110.947 81.9985 112.031 81.7424C113.944 81.2943 114.517 82.8946 114.932 84.751C115.41 86.8954 115.059 89.0078 114.677 91.0882C114.485 92.2085 114.995 93.2967 115.824 93.7768C117.099 94.4169 118.757 93.6807 119.044 92.3045Z" fill="white"/>
<path d="M145.85 85.3911C144.256 82.7346 140.495 81.0382 137.658 82.5425C134.534 84.2069 134.63 88.6877 135.523 91.1522C135.778 91.8564 136.574 94.1288 138.933 95.057C139.061 95.089 141.356 95.9852 143.523 94.8649C146.424 93.3286 147.826 88.6877 145.85 85.3911ZM142.216 90.9922C141.196 91.6643 139.698 91.5043 138.933 90.6401C138.232 89.84 138.423 88.7838 138.487 88.4637C138.519 88.2397 138.742 86.9594 139.889 86.3513C140.081 86.2553 140.941 85.7752 141.898 86.1592C142.822 86.5433 143.109 87.4075 143.173 87.5675C143.714 88.8478 143.268 90.3201 142.216 90.9922Z" fill="white"/>
<path d="M143.173 48.4239C145.181 43.5909 144.735 41.8626 146.233 39.7182C146.488 39.3341 147.986 37.2857 150.568 36.6456C153.341 35.9735 155.7 37.3177 157.23 38.1819C158.823 39.1101 162.457 41.1585 162.617 44.3271C162.744 46.7596 160.736 48.5839 158.505 50.6323C156.975 52.0406 153.883 54.4091 149.994 56.5215C149.006 57.0656 148.464 57.2896 147.986 57.9618C146.711 59.7221 147.795 61.6425 148.623 66.0273C149.771 72.0445 149.07 75.4052 151.365 76.6854C151.811 76.9415 152.225 77.0375 152.48 77.1015C154.616 77.5816 163.732 75.2451 164.051 74.2849C164.242 73.7408 163.7 73.2287 162.935 72.2685C161.66 70.6682 160.8 69.0039 159.078 65.6433C157.612 62.7627 156.879 61.2904 157.325 59.9141C157.772 58.5699 158.919 58.0258 160.385 57.0976C163.764 54.9532 167.334 51.7205 168.896 48.872C171.032 44.9672 170.075 40.6464 169.948 40.0703C167.972 31.7166 157.644 28.9961 156.114 28.612C153.628 27.9719 149.357 26.8517 144.703 28.8681C136.957 32.2287 135.586 41.1265 135.363 42.5027C135.045 44.5511 134.503 48.0078 136.575 49.7682C137.913 50.9204 140.4 51.3685 141.866 50.3443C142.567 49.8002 142.886 49.16 143.173 48.4239Z" fill="white"/>
<path d="M158.951 81.1983C161.342 80.3661 163.414 81.8384 163.987 82.2545C164.689 82.7346 165.964 83.6307 166.187 85.1991C166.505 87.3115 164.657 88.8478 164.465 89.0078C162.712 90.4161 160.226 90.3201 158.473 89.3919C158.122 89.1998 155.795 87.9836 155.668 85.5831C155.604 83.5347 157.23 81.8064 158.951 81.1983Z" fill="white"/>
<path d="M94.1807 77.9656C94.1807 77.0695 96.6988 75.3091 98.5157 74.445C99.8863 73.8048 101.098 73.2287 101.735 74.0609C102.181 74.637 102.341 75.8532 101.926 76.4613C101.161 77.6776 99.6632 76.4613 97.6551 78.2857C97.1451 78.7338 95.7107 79.3419 95.0094 79.1819C94.4038 79.0218 94.1807 78.4457 94.1807 77.9656Z" fill="white"/>
<path d="M42.7217 117.939L40.8795 125.998L47.8004 121.4L49.1447 122.29L43.7673 130.052L42.7217 129.36L44.8129 126.344L47.1531 123.131L40.2322 127.63L39.4853 127.135L41.2778 119.126L39.1368 122.438L37.0456 125.454L36 124.762L41.3774 117L42.7217 117.939Z" fill="white"/>
<path d="M50.0409 133.464C50.0409 133.315 50.0907 133.068 50.2401 132.722C49.4932 132.969 48.7464 132.92 48.0493 132.574C47.4518 132.228 47.0037 131.832 46.8045 131.239C46.6054 130.695 46.6552 130.151 46.9041 129.607C47.2526 128.965 47.7506 128.619 48.4476 128.52C49.1447 128.421 49.9413 128.619 50.7878 129.063L51.8334 129.607L52.0823 129.113C52.2815 128.767 52.3313 128.371 52.2317 128.075C52.1321 127.729 51.8334 127.432 51.4351 127.234C51.0367 127.036 50.6882 126.938 50.3397 127.036C49.9911 127.086 49.7422 127.234 49.5928 127.531L48.5472 126.987C48.6966 126.69 48.9953 126.443 49.3439 126.245C49.6924 126.048 50.1405 125.998 50.5886 126.048C51.0367 126.097 51.5346 126.196 51.9828 126.443C52.6798 126.839 53.1777 127.284 53.3769 127.877C53.5761 128.47 53.5263 129.064 53.2275 129.657L51.684 132.475C51.3853 133.019 51.2359 133.513 51.1861 133.958L51.1363 134.057L50.0409 133.464ZM48.7464 131.684C49.0949 131.882 49.4434 131.931 49.8418 131.931C50.2401 131.931 50.5886 131.832 50.8376 131.585L51.5346 130.3L50.6882 129.855C49.3936 129.162 48.5472 129.212 48.1489 129.953C47.9497 130.3 47.9497 130.596 48.0493 130.893C48.1489 131.288 48.3978 131.536 48.7464 131.684Z" fill="white"/>
<path d="M58.6547 130.893C58.5053 130.794 58.3061 130.695 58.1568 130.596C57.4597 130.25 56.8124 130.349 56.2647 130.843L54.1735 135.342L53.0781 134.848L55.966 128.47L57.0116 128.965L56.7128 129.706C57.3103 129.311 57.9576 129.261 58.6547 129.558C58.8538 129.657 59.0032 129.756 59.1028 129.855L58.6547 130.893Z" fill="white"/>
<path d="M60.3975 137.073C60.7958 137.221 61.1941 137.221 61.5925 137.122C61.9908 136.974 62.2895 136.776 62.4389 136.43L63.4845 136.826C63.3351 137.172 63.0364 137.518 62.6879 137.765C62.3393 138.012 61.8912 138.161 61.3933 138.21C60.8954 138.259 60.4473 138.21 59.9992 138.012C59.1029 137.666 58.5054 137.073 58.2067 136.282C57.908 135.491 57.9577 134.551 58.3561 133.563L58.4059 133.365C58.6548 132.722 59.0033 132.228 59.4017 131.832C59.8498 131.437 60.2979 131.189 60.8456 131.091C61.3933 130.992 61.941 131.041 62.5385 131.288C63.2853 131.585 63.7832 132.03 64.1318 132.673C64.4305 133.315 64.4803 133.958 64.2314 134.7L63.1858 134.304C63.3351 133.859 63.2853 133.464 63.136 133.068C62.9368 132.673 62.6381 132.425 62.2397 132.228C61.692 132.03 61.1443 132.03 60.6962 132.327C60.1983 132.623 59.8498 133.118 59.551 133.909L59.4515 134.106C59.1527 134.848 59.1029 135.491 59.2523 136.035C59.4515 136.48 59.8 136.875 60.3975 137.073Z" fill="white"/>
<path d="M68.5629 140.781C68.5629 140.633 68.5629 140.385 68.6127 140.039C67.9156 140.435 67.1688 140.484 66.4219 140.237C65.7746 140.039 65.2767 139.693 64.978 139.149C64.6792 138.655 64.6295 138.111 64.7788 137.518C64.978 136.826 65.4261 136.381 66.0734 136.134C66.7207 135.936 67.5173 135.985 68.5131 136.282L69.6085 136.628L69.7579 136.084C69.9073 135.689 69.8575 135.342 69.7081 134.996C69.5587 134.7 69.2102 134.453 68.7621 134.304C68.3638 134.156 67.9654 134.156 67.6169 134.304C67.2684 134.403 67.0692 134.65 66.9696 134.898L65.8244 134.551C65.924 134.205 66.173 133.958 66.4717 133.711C66.8202 133.464 67.2186 133.315 67.6667 133.266C68.1148 133.217 68.6127 133.266 69.1106 133.414C69.9073 133.661 70.4052 134.057 70.7537 134.551C71.0524 135.095 71.1022 135.689 70.9031 136.331L69.9073 139.397C69.7081 139.99 69.6085 140.534 69.6583 140.929L69.6085 141.028L68.5629 140.781ZM66.9198 139.298C67.2684 139.397 67.6667 139.446 68.0152 139.347C68.4135 139.248 68.7123 139.1 68.9612 138.853L69.4094 137.468L68.5131 137.172C67.119 136.727 66.2725 136.925 66.0236 137.716C65.924 138.062 65.924 138.408 66.1232 138.655C66.2725 139.001 66.5713 139.199 66.9198 139.298Z" fill="white"/>
<path d="M76.1815 140.929C76.2811 140.633 76.2313 140.336 76.0321 140.089C75.833 139.842 75.4844 139.594 74.8869 139.298C74.2895 139.001 73.8911 138.754 73.5924 138.507C73.2936 138.259 73.0945 137.963 72.9949 137.666C72.8953 137.369 72.8953 137.073 72.9949 136.727C73.1443 136.183 73.4928 135.787 74.0903 135.491C74.6878 135.244 75.3351 135.194 76.0321 135.392C76.8288 135.59 77.3765 135.936 77.7748 136.48C78.1731 137.023 78.2727 137.567 78.1233 138.21L76.9284 137.913C77.0279 137.617 76.9284 137.271 76.7292 136.974C76.53 136.677 76.2313 136.48 75.7832 136.381C75.3351 136.282 74.9865 136.282 74.7376 136.381C74.4388 136.48 74.2895 136.727 74.1899 137.023C74.1401 137.32 74.1899 137.518 74.3392 137.765C74.5384 137.963 74.8869 138.21 75.4346 138.507C75.9823 138.803 76.4305 139.05 76.7292 139.347C77.0279 139.644 77.2769 139.891 77.3765 140.188C77.4761 140.484 77.4761 140.83 77.3765 141.176C77.2271 141.77 76.8288 142.215 76.2811 142.462C75.7334 142.709 75.0363 142.709 74.2397 142.511C73.692 142.363 73.2439 142.165 72.8455 141.869C72.497 141.572 72.1983 141.226 72.0489 140.83C71.8995 140.435 71.8995 140.039 71.9991 139.644L73.1443 139.94C73.0447 140.336 73.1443 140.682 73.3932 140.979C73.6422 141.275 73.9907 141.473 74.4388 141.621C74.8869 141.72 75.2355 141.72 75.584 141.621C75.9325 141.522 76.0819 141.226 76.1815 140.929Z" fill="white"/>
<path d="M78.2723 145.28L77.7246 144.687C78.2225 144.242 78.571 143.698 78.7204 143.105L78.9694 142.066L80.1146 142.314L79.9154 143.253C79.8158 143.698 79.6167 144.093 79.3179 144.44C78.9694 144.786 78.6208 145.082 78.2723 145.28Z" fill="white"/>
<path d="M89.2759 145.428C89.2262 145.28 89.2262 145.033 89.2262 144.687C88.5789 145.181 87.8818 145.329 87.0852 145.231C86.3881 145.132 85.8902 144.835 85.4919 144.39C85.0935 143.945 84.994 143.401 85.0935 142.808C85.1931 142.066 85.5914 141.572 86.1889 141.275C86.7864 140.979 87.6329 140.88 88.6287 141.078L89.7739 141.275L89.8734 140.731C89.9232 140.336 89.8734 139.99 89.6743 139.693C89.4751 139.397 89.1266 139.248 88.6287 139.149C88.1806 139.1 87.832 139.149 87.5333 139.298C87.2345 139.446 87.0354 139.693 86.9856 139.99L85.7906 139.792C85.8404 139.446 86.0396 139.149 86.3383 138.853C86.637 138.556 87.0354 138.358 87.4835 138.259C87.9316 138.161 88.4295 138.111 88.9274 138.21C89.7241 138.358 90.3215 138.655 90.7199 139.1C91.1182 139.594 91.2676 140.138 91.168 140.88L90.6701 144.044C90.5705 144.687 90.5705 145.181 90.6701 145.577V145.676L89.2759 145.428ZM87.4835 144.192C87.832 144.242 88.2303 144.192 88.5789 144.093C88.9274 143.945 89.2262 143.747 89.4253 143.451L89.6743 142.017L88.7282 141.869C87.2843 141.621 86.4877 141.918 86.3383 142.808C86.2885 143.154 86.3383 143.5 86.5873 143.747C86.7864 143.995 87.0852 144.143 87.4835 144.192Z" fill="white"/>
<path d="M96.5955 140.385C96.3963 140.336 96.247 140.286 95.998 140.286C95.2014 140.188 94.6537 140.435 94.2554 141.078L93.6579 146.022L92.4629 145.873L93.3093 138.952L94.4545 139.1L94.3549 139.891C94.803 139.298 95.4005 139.1 96.1474 139.149C96.3963 139.199 96.5457 139.248 96.6453 139.298L96.5955 140.385Z" fill="white"/>
<path d="M99.9807 137.963L99.8313 139.644L101.126 139.743L101.026 140.682L99.7317 140.583L99.3334 144.884C99.2836 145.181 99.3334 145.379 99.433 145.527C99.5326 145.675 99.7317 145.774 100.03 145.774C100.18 145.774 100.379 145.774 100.628 145.725L100.528 146.664C100.23 146.714 99.8811 146.714 99.5823 146.714C99.0346 146.664 98.6363 146.467 98.4372 146.12C98.1882 145.774 98.0886 145.28 98.1384 144.736L98.5367 140.435L97.2422 140.336L97.3418 139.397L98.6363 139.495L98.7857 137.814L99.9807 137.963Z" fill="white"/>
<path d="M103.417 146.912L102.222 146.813L102.72 139.842L103.915 139.94L103.417 146.912ZM102.72 138.012C102.72 137.814 102.819 137.666 102.919 137.518C103.068 137.369 103.217 137.32 103.466 137.369C103.715 137.419 103.865 137.468 103.964 137.617C104.064 137.765 104.114 137.913 104.114 138.111C104.114 138.309 104.014 138.457 103.915 138.606C103.765 138.704 103.616 138.803 103.367 138.754C103.118 138.704 102.969 138.655 102.869 138.507C102.769 138.358 102.72 138.21 102.72 138.012Z" fill="white"/>
<path d="M109.79 145.379C109.79 145.033 109.69 144.786 109.441 144.637C109.192 144.44 108.794 144.291 108.196 144.143C107.599 143.995 107.101 143.797 106.753 143.648C106.404 143.451 106.155 143.253 106.006 142.956C105.856 142.709 105.757 142.412 105.807 142.066C105.807 141.473 106.105 141.028 106.603 140.633C107.101 140.237 107.748 140.089 108.495 140.089C109.292 140.138 109.939 140.336 110.437 140.781C110.935 141.226 111.134 141.72 111.134 142.363L109.939 142.314C109.939 141.967 109.84 141.72 109.541 141.473C109.242 141.226 108.943 141.078 108.495 141.078C108.047 141.078 107.699 141.127 107.45 141.325C107.201 141.523 107.051 141.77 107.051 142.066C107.051 142.363 107.151 142.561 107.35 142.709C107.599 142.857 107.997 143.006 108.595 143.154C109.192 143.302 109.69 143.5 110.039 143.698C110.387 143.896 110.686 144.143 110.835 144.39C110.985 144.637 111.084 144.983 111.084 145.329C111.084 145.972 110.786 146.467 110.288 146.813C109.79 147.159 109.093 147.357 108.296 147.307C107.748 147.307 107.25 147.159 106.802 146.961C106.354 146.763 106.055 146.467 105.807 146.071C105.558 145.725 105.458 145.329 105.458 144.884L106.653 144.934C106.653 145.329 106.802 145.676 107.101 145.923C107.4 146.17 107.798 146.318 108.296 146.318C108.744 146.318 109.143 146.269 109.391 146.071C109.64 145.873 109.79 145.676 109.79 145.379Z" fill="white"/>
<path d="M114.42 138.606V140.287H115.715V141.226H114.42V145.577C114.42 145.873 114.47 146.071 114.57 146.219C114.669 146.368 114.868 146.417 115.167 146.417C115.316 146.417 115.516 146.417 115.765 146.318V147.307C115.466 147.406 115.117 147.455 114.819 147.455C114.271 147.455 113.872 147.307 113.624 146.961C113.375 146.615 113.225 146.17 113.225 145.577V141.226H111.931V140.287H113.225V138.606H114.42Z" fill="white"/>
<path d="M121.988 147.01C121.888 146.862 121.838 146.615 121.789 146.269C121.291 146.862 120.643 147.208 119.847 147.258C119.15 147.307 118.552 147.159 118.104 146.813C117.656 146.467 117.357 145.972 117.307 145.379C117.258 144.637 117.507 144.044 118.005 143.648C118.552 143.203 119.299 142.956 120.295 142.857L121.44 142.759L121.39 142.215C121.34 141.819 121.191 141.473 120.942 141.226C120.693 140.979 120.295 140.88 119.797 140.929C119.349 140.979 119 141.078 118.751 141.325C118.453 141.572 118.353 141.819 118.353 142.116L117.158 142.215C117.108 141.869 117.258 141.523 117.457 141.176C117.706 140.83 118.005 140.534 118.403 140.336C118.801 140.138 119.299 139.99 119.797 139.94C120.594 139.891 121.241 140.039 121.739 140.385C122.237 140.731 122.486 141.275 122.585 142.017L122.834 145.231C122.884 145.873 122.984 146.368 123.183 146.763V146.862L121.988 147.01ZM119.897 146.219C120.295 146.17 120.643 146.071 120.942 145.873C121.291 145.676 121.49 145.379 121.639 145.082L121.54 143.648L120.594 143.698C119.1 143.797 118.403 144.291 118.502 145.132C118.552 145.527 118.652 145.774 118.951 145.972C119.2 146.17 119.498 146.269 119.897 146.219Z" fill="white"/>
<path d="M130.951 143.846L131.499 138.358L132.743 138.111L131.598 146.565C131.399 147.801 130.851 148.494 129.905 148.691L129.656 148.741H129.208L129.009 147.801L129.358 147.752C129.756 147.653 130.055 147.505 130.254 147.307C130.453 147.109 130.553 146.763 130.602 146.318L130.702 145.577L126.818 139.298L128.113 139.05L130.951 143.846Z" fill="white"/>
<path d="M138.17 134.897L138.668 136.529L139.913 136.183L140.162 137.073L138.917 137.419L140.112 141.572C140.212 141.819 140.311 142.017 140.461 142.116C140.61 142.215 140.809 142.215 141.108 142.165C141.257 142.116 141.407 142.066 141.656 141.918L141.905 142.857C141.606 143.006 141.357 143.154 141.058 143.253C140.56 143.401 140.112 143.352 139.764 143.105C139.415 142.857 139.166 142.462 138.967 141.918L137.772 137.765L136.527 138.111L136.278 137.221L137.523 136.875L137.025 135.244L138.17 134.897Z" fill="white"/>
<path d="M141.955 139.1C141.756 138.457 141.656 137.814 141.756 137.221C141.855 136.628 142.055 136.084 142.403 135.639C142.752 135.194 143.25 134.897 143.847 134.7C144.743 134.403 145.59 134.453 146.386 134.897C147.183 135.342 147.731 136.084 148.079 137.122L148.129 137.221C148.328 137.864 148.428 138.507 148.328 139.1C148.229 139.693 148.029 140.237 147.681 140.633C147.332 141.078 146.835 141.374 146.237 141.572C145.341 141.869 144.494 141.819 143.698 141.374C142.901 140.929 142.353 140.188 142.005 139.199L141.955 139.1ZM143.15 138.853C143.399 139.594 143.747 140.138 144.245 140.435C144.743 140.731 145.291 140.83 145.839 140.633C146.436 140.435 146.785 140.039 146.984 139.495C147.183 138.952 147.133 138.259 146.835 137.419C146.586 136.677 146.237 136.183 145.689 135.837C145.191 135.491 144.644 135.441 144.096 135.639C143.548 135.837 143.15 136.183 142.951 136.776C142.851 137.37 142.901 138.062 143.15 138.853Z" fill="white"/>
<path d="M151.962 133.068C151.763 133.118 151.613 133.167 151.414 133.216C150.667 133.513 150.319 134.008 150.269 134.7L152.061 139.347L150.916 139.792L148.377 133.266L149.472 132.87L149.771 133.612C149.92 132.87 150.319 132.376 151.016 132.129C151.215 132.03 151.414 132.03 151.564 132.03L151.962 133.068Z" fill="white"/>
<path d="M153.705 131.189L154.103 131.98C154.352 131.14 154.85 130.547 155.647 130.25C157.041 129.657 158.037 130.151 158.684 131.684L160.476 135.936L159.381 136.381L157.539 132.129C157.339 131.684 157.091 131.387 156.792 131.239C156.493 131.091 156.095 131.14 155.647 131.338C155.298 131.486 154.999 131.733 154.8 132.03C154.601 132.327 154.501 132.673 154.501 133.068L156.443 137.666L155.348 138.111L152.609 131.684L153.705 131.189Z" fill="white"/>
<path d="M165.157 133.958C164.31 134.354 163.464 134.403 162.667 134.106C161.871 133.81 161.223 133.167 160.775 132.228L160.676 132.03C160.377 131.387 160.228 130.794 160.228 130.201C160.228 129.607 160.377 129.064 160.676 128.569C160.974 128.075 161.373 127.729 161.871 127.481C162.717 127.086 163.464 127.086 164.211 127.383C164.958 127.679 165.505 128.371 166.003 129.41L166.202 129.855L161.871 131.882C162.169 132.475 162.617 132.92 163.115 133.118C163.663 133.315 164.211 133.315 164.709 133.068C165.107 132.87 165.406 132.673 165.555 132.376C165.754 132.079 165.904 131.783 165.953 131.437L166.85 131.634C166.85 132.673 166.202 133.464 165.157 133.958ZM162.319 128.322C161.871 128.52 161.572 128.866 161.423 129.311C161.273 129.756 161.323 130.3 161.522 130.893L164.709 129.41L164.659 129.311C164.36 128.767 164.012 128.421 163.613 128.223C163.215 128.124 162.767 128.124 162.319 128.322Z" fill="white"/>
<path d="M167.198 128.915C166.899 128.322 166.7 127.679 166.7 127.086C166.7 126.493 166.8 125.949 167.099 125.454C167.397 124.96 167.796 124.564 168.343 124.317C169.19 123.872 170.036 123.823 170.883 124.119C171.729 124.416 172.376 125.059 172.874 126.048L172.924 126.147C173.223 126.74 173.422 127.333 173.422 127.976C173.422 128.619 173.322 129.113 173.024 129.607C172.725 130.102 172.327 130.497 171.729 130.794C170.883 131.239 170.036 131.288 169.19 130.992C168.343 130.695 167.696 130.052 167.198 129.064V128.915ZM168.294 128.47C168.642 129.162 169.09 129.607 169.638 129.855C170.186 130.102 170.733 130.102 171.231 129.805C171.779 129.508 172.078 129.113 172.177 128.52C172.277 127.926 172.127 127.234 171.729 126.493C171.381 125.8 170.932 125.355 170.385 125.108C169.837 124.861 169.289 124.861 168.742 125.158C168.194 125.454 167.895 125.85 167.796 126.443C167.746 126.987 167.895 127.679 168.294 128.47Z" fill="white"/>
<path d="M178.75 124.564C178.6 124.268 178.351 124.119 178.053 124.119C177.754 124.07 177.306 124.169 176.708 124.367C176.111 124.564 175.613 124.663 175.214 124.663C174.816 124.663 174.468 124.614 174.219 124.515C173.92 124.367 173.721 124.169 173.522 123.872C173.223 123.378 173.223 122.834 173.422 122.241C173.621 121.647 174.069 121.153 174.717 120.807C175.414 120.411 176.061 120.263 176.708 120.362C177.355 120.461 177.804 120.807 178.152 121.351L177.107 121.944C176.957 121.647 176.658 121.499 176.31 121.4C175.961 121.351 175.563 121.4 175.214 121.598C174.816 121.796 174.567 122.092 174.468 122.34C174.368 122.636 174.368 122.883 174.517 123.18C174.667 123.427 174.866 123.576 175.165 123.576C175.463 123.576 175.862 123.526 176.459 123.328C177.057 123.131 177.555 123.032 177.953 123.032C178.351 122.982 178.7 123.081 178.999 123.18C179.297 123.328 179.546 123.526 179.696 123.872C179.994 124.416 180.044 124.96 179.795 125.553C179.546 126.146 179.098 126.641 178.401 127.036C177.903 127.333 177.455 127.481 176.957 127.531C176.459 127.58 176.061 127.481 175.663 127.333C175.264 127.185 174.966 126.888 174.766 126.542L175.812 125.949C176.011 126.295 176.31 126.493 176.708 126.542C177.107 126.591 177.505 126.493 177.903 126.245C178.301 125.998 178.55 125.751 178.7 125.454C178.899 125.108 178.899 124.812 178.75 124.564Z" fill="white"/>
</svg>
