<svg width="87" height="85" viewBox="0 0 87 85" fill="none" xmlns="http://www.w3.org/2000/svg">
<path d="M44.2542 59.1658C44.2327 59.0591 44.1036 58.5684 43.7164 58.419C43.3937 58.291 43.2001 58.5257 42.6838 58.547C42.232 58.5684 41.6942 58.419 41.393 58.1203C41.1133 57.8429 41.1133 57.5015 41.1349 56.3707C41.1349 53.4688 41.0703 53.8956 41.1349 52.9141C41.1779 52.0819 41.2209 51.9966 41.1564 51.7192C40.9412 50.823 40.1883 50.2683 39.5429 49.7988C38.5103 49.0307 37.5207 48.7747 37.3056 48.732C36.5741 48.54 35.1973 48.2199 34.0786 48.86C33.5408 49.1801 32.8954 49.6068 33.046 50.4176C33.2396 51.5058 34.4659 51.3138 34.5734 51.2711C35.0467 51.0791 36.0793 50.695 36.8538 50.7803C37.198 50.823 37.9294 51.1644 38.08 51.3138C38.5963 51.8259 38.919 52.7007 38.5963 53.0421C38.4242 53.2341 38.1015 53.2341 38.0585 53.2128C37.6498 53.0848 37.5637 53.0207 37.3916 52.9141C36.6602 52.4446 35.563 52.6793 35.3909 52.7434C34.4228 52.9994 33.928 53.6822 33.6914 53.9809C33.046 54.8557 32.9815 55.7519 32.96 56.1573C32.9385 56.5627 32.8524 57.9283 33.8635 59.1231C34.638 60.0406 35.9287 60.7021 37.0689 60.5314C37.5852 60.4674 38.1661 60.382 38.7039 59.9553C38.9621 59.7419 39.1557 59.5072 39.4999 59.5072C39.7795 59.4859 39.9947 59.6566 40.2743 59.8486C41.1349 60.4674 41.5866 60.7661 41.7587 60.8514C42.275 61.0648 43.114 61.1502 43.6949 60.6594C44.0821 60.3394 44.3833 59.7419 44.2542 59.1658ZM37.4992 57.8856C36.7677 58.2483 35.7782 58.0563 35.3264 57.4375C34.9176 56.8614 35.1113 56.1786 35.1543 55.9653C35.1973 55.8159 35.4124 54.9838 36.2299 54.6424C36.3805 54.5784 36.9829 54.3436 37.6067 54.6637C38.1876 54.9838 38.3382 55.5812 38.3597 55.6665C38.6609 56.5627 38.2736 57.5015 37.4992 57.8856Z" fill="#F3F243"/>
<path d="M63.6589 39.1513C63.6374 38.9806 63.4438 38.1058 62.7769 37.8071C62.2175 37.551 61.8733 37.9351 60.9698 37.9351C60.1738 37.9351 59.2487 37.6364 58.7539 37.0816C58.2807 36.5695 58.3452 35.9934 58.4313 34.0304C58.6894 28.9949 58.5388 29.7416 58.7109 28.0347C58.8615 26.5838 58.926 26.4557 58.84 25.965C58.5173 24.3647 57.2911 23.3832 56.2154 22.5084C54.4729 21.1001 52.7734 20.588 52.4077 20.46C51.1599 20.076 48.7935 19.3932 46.7928 20.4387C45.8247 20.9294 44.6845 21.6336 44.8566 23.0418C45.0933 24.9408 47.2231 24.7061 47.4382 24.6421C48.2772 24.3434 50.1058 23.7673 51.4181 23.9806C51.9989 24.0873 53.2682 24.7488 53.5048 25.0262C54.3438 25.9437 54.8386 27.5013 54.2578 28.0774C53.9566 28.3761 53.3973 28.3547 53.3112 28.3334C52.6013 28.0987 52.4507 27.9707 52.171 27.7573C50.9233 26.8825 49.0301 27.2239 48.7074 27.2879C47.0079 27.6506 46.0829 28.8028 45.6741 29.2936C44.4694 30.7445 44.2973 32.3021 44.2113 33.0062C44.1467 33.7103 43.8886 36.0788 45.502 38.2338C46.7713 39.8981 48.9441 41.1356 50.9448 40.9436C51.8483 40.8583 52.8594 40.7516 53.8275 40.0901C54.3008 39.7701 54.6665 39.3647 55.2474 39.3647C55.7422 39.3647 56.0864 39.6421 56.5811 40.0261C58.044 41.157 58.7539 41.7331 59.0766 41.8824C59.9372 42.2878 61.4 42.5012 62.4757 41.7331C63.2501 41.1783 63.831 40.1541 63.6589 39.1513ZM52.085 36.5055C50.7727 37.0816 49.0732 36.6549 48.3417 35.5453C47.6748 34.5212 48.0621 33.3476 48.1911 32.9635C48.2772 32.7075 48.729 31.2779 50.1703 30.7658C50.4285 30.6805 51.5041 30.2964 52.5367 30.9152C53.5263 31.5126 53.7415 32.5581 53.763 32.7288C54.1932 34.2864 53.4403 35.8867 52.085 36.5055Z" fill="#F3F243"/>
<path d="M38.4027 39.1513C38.3812 38.9806 38.1876 38.1058 37.5207 37.8071C36.9613 37.551 36.6171 37.9351 35.7136 37.9351C34.9176 37.9351 33.9926 37.6364 33.4978 37.0816C33.0245 36.5695 33.089 35.9934 33.1751 34.0304C33.4332 28.9949 33.2827 29.7416 33.4548 28.0347C33.6053 26.5838 33.6699 26.4557 33.5838 25.965C33.2611 24.3647 32.0349 23.3832 30.9593 22.5084C29.2167 21.1001 27.5172 20.588 27.1515 20.46C25.9037 20.076 23.5373 19.3932 21.5366 20.4387C20.5686 20.9294 19.4284 21.6336 19.6005 23.0418C19.8371 24.9408 21.9669 24.7061 22.182 24.6421C23.021 24.3434 24.8496 23.7673 26.1619 23.9806C26.7427 24.0873 28.012 24.7488 28.2486 25.0262C29.0876 25.9437 29.5824 27.5013 29.0016 28.0774C28.7004 28.3761 28.1411 28.3547 28.055 28.3334C27.3451 28.0987 27.1945 27.9707 26.9149 27.7573C25.6671 26.8825 23.774 27.2239 23.4513 27.2879C21.7518 27.6506 20.8267 28.8028 20.418 29.2936C19.2133 30.7445 19.0412 32.3021 18.9551 33.0062C18.8906 33.7103 18.6324 36.0788 20.2459 38.2338C21.5151 39.8981 23.6879 41.1356 25.6886 40.9436C26.5922 40.8583 27.6033 40.7516 28.5713 40.0901C29.0446 39.7701 29.4103 39.3647 29.9912 39.3647C30.486 39.3647 30.8302 39.6421 31.325 40.0261C32.7879 41.157 33.4978 41.7331 33.8205 41.8824C34.681 42.2878 36.1439 42.5012 37.2195 41.7331C37.994 41.1783 38.5748 40.1541 38.4027 39.1513ZM26.8288 36.5055C25.5165 37.0816 23.817 36.6549 23.0856 35.5453C22.4187 34.5212 22.8059 33.3476 22.935 32.9635C23.021 32.7075 23.4728 31.2779 24.9142 30.7658C25.1723 30.6805 26.248 30.2964 27.2806 30.9152C28.2702 31.5126 28.4853 32.5581 28.5068 32.7288C28.9371 34.2864 28.1841 35.8867 26.8288 36.5055Z" fill="#F3F243"/>
<path d="M64.0892 60.1474C64.0677 60.0407 63.9601 59.5499 63.5729 59.3792C63.2502 59.2299 63.0566 59.4433 62.5402 59.4433C62.0885 59.4433 61.5507 59.2726 61.271 58.9525C61.0128 58.6538 61.0343 58.3337 61.0989 57.2029C61.2495 54.301 61.1634 54.7278 61.271 53.7463C61.357 52.9141 61.228 49.7776 61.0343 48.476C60.9053 47.6225 60.5826 45.1474 59.7866 45.2114C57.5493 45.4035 58.2807 48.8174 58.3668 50.0976C58.4313 51.0151 59.0337 53.4262 58.711 53.7676C58.5389 53.9383 58.2162 53.9169 58.1731 53.9169C57.8504 53.8956 57.6353 53.6822 57.5062 53.5969C56.8178 53.0635 55.6992 53.2768 55.5271 53.3195C54.559 53.5329 54.0212 54.1943 53.7845 54.4717C53.0961 55.3039 52.9885 56.2 52.9455 56.6054C52.9025 57.0108 52.7519 58.3764 53.6985 59.6139C54.4299 60.5741 55.6777 61.2782 56.8393 61.1716C57.3557 61.1289 57.9365 61.0649 58.4958 60.6808C58.7755 60.4888 58.9691 60.2541 59.3133 60.2541C59.593 60.2541 59.8081 60.4248 60.0878 60.6381C60.9268 61.2996 61.3355 61.6196 61.5291 61.705C62.0239 61.9397 62.8629 62.0677 63.4868 61.6196C63.8525 61.3209 64.1967 60.7448 64.0892 60.1474ZM57.4202 58.7818C56.6672 59.1232 55.6776 58.8671 55.2689 58.227C54.8817 57.6509 55.1183 56.9468 55.1829 56.7334C55.2259 56.5841 55.5055 55.7733 56.323 55.4746C56.4736 55.4319 57.0975 55.1972 57.6783 55.5599C58.2592 55.9013 58.3668 56.5201 58.3883 56.6054C58.7755 58.0137 58.0656 58.4831 57.4202 58.7818Z" fill="#F3F243"/>
<path d="M16.3521 3.68942C14.7817 2.38786 12.2862 1.76908 7.27367 0.574204C4.15431 -0.172594 2.94959 -0.172594 1.96 0.467519C0.389559 1.47036 0.0238404 4.09482 0.00232751 5.43906C-0.062211 8.7463 1.22856 35.2043 2.23966 38.4475C2.99261 40.8799 4.39095 41.328 5.89685 40.7946C6.75736 40.4959 7.12308 39.493 7.35972 38.8102C8.45688 35.5883 6.54223 33.6467 7.38123 29.6566C7.57485 28.6751 7.85452 28.0777 8.26326 27.5656C9.40344 26.136 11.232 25.9013 11.9204 25.7733C15.5561 25.0265 18.9767 20.4177 20.0093 16.4277C21.1279 12.0749 19.9017 6.67661 16.3521 3.68942ZM10.6942 19.1588C9.81219 20.0123 8.04813 21.1858 7.14459 20.6097C6.49921 20.2043 5.78928 10.1546 6.6498 9.62112C7.94057 8.83165 12.2001 11.1787 12.5443 14.6353C12.8025 17.0251 11.0599 18.7961 10.6942 19.1588Z" fill="#F3F243"/>
<path d="M33.6484 13.3125C32.6804 12.8858 31.4972 13.2058 30.7442 13.7392C30.5506 13.8673 29.3889 14.6994 29.5395 15.7876C29.6686 16.7051 30.7012 17.3025 31.4541 17.4732C32.6373 17.7506 33.2397 17.0465 34.0142 17.4092C34.8101 17.7933 35.0038 18.9668 35.0898 19.5856C35.5846 23.2129 35.6061 28.9312 35.9503 32.6866C36.0579 33.8814 37.0475 34.927 37.6929 35.0976C38.4673 35.311 40.7907 34.9696 41.1134 33.412C41.5437 31.3637 40.4035 29.9127 39.4139 22.6581C39.0912 20.3537 38.704 19.2442 39.586 18.348C40.2744 17.6653 41.307 17.0038 42.2966 17.2599C44.0607 17.7079 44.3188 19.5643 45.502 19.5216C46.384 19.4789 47.2876 18.3907 47.3521 17.4092C47.4812 15.7236 45.2224 14.3367 43.6519 13.8886C41.9954 13.4192 40.3389 13.3978 38.6609 14.294C37.5423 14.8914 37.4992 15.5529 36.7678 15.3822C35.6707 15.1261 34.9392 13.8673 33.6484 13.3125Z" fill="#F3F243"/>
<path d="M18.6755 42.6511C16.6963 41.2856 13.3188 40.3254 11.1675 41.5629C7.23064 43.8247 8.06964 52.9143 11.5332 58.6326C12.071 59.5074 15.1689 64.6497 18.2237 63.9882C20.5686 63.4761 21.5582 59.8488 21.6012 59.6354C21.6442 59.4434 22.3757 56.5629 21.2355 55.9228C20.4825 55.4961 19.4499 55.7521 19.1057 57.1177C18.74 58.6326 17.5998 59.5074 16.9975 59.5928C16.0079 59.7421 14.6526 56.2429 14.459 55.7308C13.5554 53.4477 12.1571 46.0651 13.3188 45.6383C14.2438 45.2969 17.019 46.5772 17.7504 47.9214C18.0946 48.5402 18.1376 49.0736 18.7615 49.6497C18.8691 49.7564 19.7941 50.6099 20.5041 50.3752C21.4937 50.0551 21.8379 47.6654 21.2355 45.8304C20.6762 44.0594 19.2778 43.0779 18.6755 42.6511Z" fill="#F3F243"/>
<path d="M23.0856 51.6764C22.978 52.0605 23.0641 55.6878 23.2792 57.0533C23.5374 58.5683 23.4944 60.1472 24.3979 61.1287C24.9142 61.6835 25.7962 62.1102 26.5062 62.0035C28.679 61.7262 28.3132 60.2966 29.3459 60.5099C29.4964 60.5313 29.7331 60.5953 29.9912 60.9367C30.6366 61.7262 31.4111 62.3876 31.8629 62.3449C32.2931 62.3023 33.0676 61.5981 32.9815 60.8727C32.874 59.9552 30.4645 60.3179 30.7442 56.84C30.9378 54.4502 30.6581 53.5754 31.3035 52.4232C32.2071 50.7802 29.6685 50.1401 28.8295 51.0576C28.3993 51.527 28.5499 54.6209 28.3993 55.7731C28.2487 56.84 28.2272 58.7603 27.4957 58.9097C26.205 59.1657 25.8608 58.0775 25.6241 56.8186C25.366 55.3677 25.6456 53.9808 25.9683 52.6152C26.1404 51.8684 25.8177 51.143 25.2584 50.8016C24.4624 50.3108 23.3223 50.7589 23.0856 51.6764Z" fill="#F3F243"/>
<path d="M51.7193 56.1998C51.8054 55.7944 51.5902 52.2097 51.3106 50.8228C51.0094 49.3079 50.9664 47.7503 50.0198 46.7901C49.482 46.2567 48.5999 45.8726 47.8685 46.0006C45.7172 46.3634 46.1475 47.7716 45.0934 47.6009C44.9428 47.5796 44.7061 47.5156 44.4265 47.2169C43.738 46.4487 42.9421 45.83 42.5118 45.894C42.0816 45.958 41.3501 46.6834 41.4577 47.4089C41.6083 48.3264 43.9962 47.8783 43.8456 51.3563C43.738 53.746 44.0607 54.5995 43.4584 55.7944C42.6194 57.48 45.1794 58.0134 45.9754 57.0532C46.3841 56.5625 46.1045 53.49 46.212 52.3164C46.3196 51.2282 46.2551 49.3292 46.9865 49.1585C48.2773 48.8598 48.6645 49.9267 48.9442 51.1642C49.2668 52.5938 49.0302 54.002 48.7721 55.389C48.643 56.1358 48.9872 56.8612 49.5465 57.1813C50.407 57.608 51.5257 57.1173 51.7193 56.1998Z" fill="#F3F243"/>
<path d="M69.8115 51.5909C68.7358 49.82 66.1973 48.6891 64.2827 49.6919C62.1744 50.8015 62.2389 53.7886 62.8413 55.4316C63.0134 55.901 63.5512 57.4159 65.1432 58.0347C65.2292 58.0561 66.7782 58.6535 68.241 57.9067C70.1987 56.8825 71.1453 53.7886 69.8115 51.5909ZM67.359 55.3249C66.6706 55.773 65.6595 55.6663 65.1432 55.0902C64.6699 54.5568 64.799 53.8527 64.842 53.6393C64.8635 53.4899 65.0141 52.6364 65.7886 52.231C65.9176 52.167 66.4985 51.847 67.1439 52.103C67.7677 52.3591 67.9614 52.9352 68.0044 53.0419C68.3701 53.8953 68.0689 54.8768 67.359 55.3249Z" fill="#F3F243"/>
<path d="M68.0043 26.9467C69.3597 23.7248 69.0585 22.5726 70.0696 21.143C70.2417 20.8869 71.2528 19.5214 72.9953 19.0946C74.8669 18.6465 76.4589 19.5427 77.4915 20.1188C78.5672 20.7376 81.0196 22.1032 81.1272 24.2155C81.2132 25.8371 79.8579 27.0534 78.352 28.4189C77.3194 29.3578 75.2327 30.9367 72.6081 32.3449C71.9412 32.7077 71.5755 32.857 71.2528 33.3051C70.3923 34.4787 71.1237 35.7589 71.683 38.6821C72.4575 42.6934 71.9842 44.9338 73.5332 45.7873C73.8343 45.958 74.114 46.022 74.2861 46.0647C75.7275 46.3847 81.8801 44.8271 82.0953 44.187C82.2243 43.8243 81.8586 43.4829 81.3423 42.8428C80.4818 41.7759 79.9009 40.6664 78.7393 38.426C77.7497 36.5057 77.2549 35.5242 77.556 34.6067C77.8572 33.7105 78.6317 33.3478 79.6213 32.729C81.9016 31.2994 84.3111 29.1444 85.3652 27.2454C86.8066 24.6423 86.1612 21.7618 86.0751 21.3777C84.7413 15.8087 77.7712 13.9951 76.7386 13.739C75.0606 13.3123 72.1778 12.5655 69.037 13.9097C63.8093 16.1501 62.8843 22.0818 62.7337 22.9993C62.5186 24.3649 62.1529 26.6693 63.5512 27.8428C64.4547 28.611 66.1327 28.9097 67.1223 28.2269C67.5956 27.8642 67.8107 27.4374 68.0043 26.9467Z" fill="#F3F243"/>
<path d="M78.6532 48.7957C80.2667 48.2409 81.665 49.2225 82.0522 49.4998C82.5255 49.8199 83.386 50.4173 83.5366 51.4628C83.7518 52.8711 82.504 53.8953 82.3749 54.002C81.1917 54.9408 79.5137 54.8768 78.3305 54.258C78.0939 54.13 76.5234 53.3192 76.4374 51.7189C76.3944 50.3533 77.4915 49.2011 78.6532 48.7957Z" fill="#F3F243"/>
<path d="M34.9392 46.6411C34.9392 46.0436 36.6387 44.8701 37.865 44.294C38.79 43.8672 39.6075 43.4832 40.0378 44.0379C40.3389 44.422 40.4465 45.2328 40.1668 45.6382C39.6505 46.449 38.6394 45.6382 37.2841 46.8544C36.9399 47.1531 35.9718 47.5585 35.4985 47.4519C35.0898 47.3452 34.9392 46.9611 34.9392 46.6411Z" fill="#F3F243"/>
<path d="M4.08103 67.1906L3.01462 71.8502L7.02087 69.1917L7.79907 69.7062L4.68629 74.1943L4.08103 73.7941L5.29155 72.0503L6.64619 70.1922L2.63993 72.7936L2.2076 72.5077L3.24519 67.8767L2.00585 69.792L0.795325 71.5358L0.190063 71.1355L3.30284 66.6475L4.08103 67.1906Z" fill="#F3F243"/>
<path d="M8.31786 76.1669C8.31786 76.0812 8.34668 75.9382 8.43315 75.7381C8.00082 75.8811 7.56849 75.8525 7.16498 75.6524C6.81911 75.4523 6.55972 75.2236 6.44443 74.8805C6.32914 74.5661 6.35796 74.2516 6.50207 73.9372C6.70383 73.5656 6.99205 73.3655 7.39555 73.3083C7.79906 73.2511 8.26021 73.3655 8.75019 73.6227L9.35545 73.9372L9.49956 73.6513C9.61485 73.4512 9.64367 73.2225 9.58602 73.051C9.52838 72.8509 9.35545 72.6794 9.12487 72.565C8.8943 72.4507 8.69254 72.3935 8.49079 72.4507C8.28903 72.4793 8.14493 72.565 8.05846 72.7366L7.4532 72.4221C7.53966 72.2506 7.7126 72.1077 7.91435 71.9933C8.1161 71.879 8.3755 71.8504 8.6349 71.879C8.8943 71.9075 9.18252 71.9647 9.44191 72.1077C9.84542 72.3364 10.1336 72.5936 10.2489 72.9367C10.3642 73.2797 10.3354 73.6227 10.1625 73.9658L9.26898 75.5952C9.09605 75.9097 9.00958 76.1955 8.98076 76.4528L8.95194 76.51L8.31786 76.1669ZM7.56849 75.1378C7.77024 75.2522 7.97199 75.2808 8.20257 75.2808C8.43314 75.2808 8.6349 75.2236 8.77901 75.0807L9.18252 74.3374L8.69254 74.0801C7.94317 73.6799 7.4532 73.7085 7.22262 74.1373C7.10733 74.3374 7.10733 74.5089 7.16498 74.6804C7.22262 74.9091 7.36673 75.0521 7.56849 75.1378Z" fill="#F3F243"/>
<path d="M13.3039 74.6803C13.2175 74.6231 13.1022 74.5659 13.0157 74.5088C12.6122 74.3087 12.2375 74.3658 11.9205 74.6517L10.71 77.2531L10.0759 76.9672L11.7475 73.2795L12.3528 73.5654L12.1799 73.9942C12.5257 73.7655 12.9004 73.7369 13.3039 73.9084C13.4192 73.9656 13.5057 74.0228 13.5633 74.08L13.3039 74.6803Z" fill="#F3F243"/>
<path d="M14.3128 78.2537C14.5434 78.3394 14.774 78.3394 15.0045 78.2822C15.2351 78.1965 15.408 78.0821 15.4945 77.882L16.0998 78.1107C16.0133 78.3108 15.8404 78.5109 15.6386 78.6539C15.4369 78.7968 15.1775 78.8826 14.8892 78.9111C14.601 78.9397 14.3416 78.9112 14.0822 78.7968C13.5634 78.5967 13.2176 78.2537 13.0446 77.7963C12.8717 77.3389 12.9005 76.7958 13.1311 76.224L13.1599 76.1097C13.304 75.7381 13.5058 75.4522 13.7364 75.2235C13.9958 74.9948 14.2552 74.8519 14.5722 74.7947C14.8892 74.7375 15.2063 74.7661 15.5522 74.909C15.9845 75.0806 16.2727 75.3378 16.4745 75.7095C16.6474 76.0811 16.6762 76.4527 16.5321 76.8815L15.9268 76.6528C16.0133 76.3955 15.9845 76.1668 15.898 75.9382C15.7827 75.7095 15.6098 75.5665 15.3792 75.4522C15.0622 75.3378 14.7451 75.3378 14.4857 75.5094C14.1975 75.6809 13.9958 75.9667 13.8228 76.4241L13.7652 76.5385C13.5923 76.9673 13.5634 77.3389 13.6499 77.6533C13.7652 77.9106 13.9669 78.1393 14.3128 78.2537Z" fill="#F3F243"/>
<path d="M19.0396 80.3976C19.0396 80.3119 19.0396 80.1689 19.0684 79.9688C18.6649 80.1975 18.2325 80.2261 17.8002 80.0832C17.4255 79.9688 17.1373 79.7687 16.9644 79.4543C16.7915 79.1684 16.7626 78.8539 16.8491 78.5109C16.9644 78.1107 17.2238 77.8534 17.5985 77.7105C17.9732 77.5961 18.4343 77.6247 19.0107 77.7962L19.6448 77.9963L19.7313 77.6819C19.8178 77.4532 19.7889 77.2531 19.7025 77.053C19.616 76.8815 19.4143 76.7385 19.1549 76.6528C18.9243 76.567 18.6937 76.567 18.4919 76.6528C18.2902 76.71 18.1749 76.8529 18.1173 76.9958L17.4544 76.7957C17.512 76.5956 17.6561 76.4527 17.829 76.3097C18.0308 76.1668 18.2614 76.0811 18.5208 76.0525C18.7802 76.0239 19.0684 76.0525 19.3566 76.1382C19.8178 76.2812 20.106 76.5099 20.3077 76.7957C20.4807 77.1102 20.5095 77.4532 20.3942 77.8248L19.8178 79.5972C19.7025 79.9402 19.6448 80.2547 19.6736 80.4834L19.6448 80.5406L19.0396 80.3976ZM18.0884 79.54C18.2902 79.5972 18.5208 79.6258 18.7225 79.5686C18.9531 79.5114 19.126 79.4257 19.2701 79.2827L19.5295 78.4823L19.0107 78.3108C18.2037 78.0535 17.7138 78.1679 17.5696 78.6253C17.512 78.8254 17.512 79.0255 17.6273 79.1684C17.7138 79.3685 17.8867 79.4829 18.0884 79.54Z" fill="#F3F243"/>
<path d="M23.4494 80.4834C23.507 80.3119 23.4782 80.1404 23.3629 79.9975C23.2476 79.8545 23.0459 79.7116 22.7 79.5401C22.3541 79.3686 22.1236 79.2256 21.9506 79.0827C21.7777 78.9398 21.6624 78.7682 21.6048 78.5967C21.5471 78.4252 21.5471 78.2537 21.6048 78.0536C21.6912 77.7391 21.893 77.5104 22.2389 77.3389C22.5847 77.196 22.9594 77.1674 23.3629 77.2817C23.8241 77.3961 24.1411 77.5962 24.3717 77.9106C24.6023 78.2251 24.6599 78.5395 24.5734 78.9112L23.8817 78.7396C23.9394 78.5681 23.8817 78.368 23.7664 78.1965C23.6511 78.025 23.4782 77.9106 23.2188 77.8535C22.9594 77.7963 22.7577 77.7963 22.6135 77.8535C22.4406 77.9106 22.3541 78.0536 22.2965 78.2251C22.2677 78.3966 22.2965 78.511 22.383 78.6539C22.4983 78.7682 22.7 78.9112 23.017 79.0827C23.3341 79.2542 23.5935 79.3971 23.7664 79.5687C23.9394 79.7402 24.0835 79.8831 24.1411 80.0546C24.1987 80.2261 24.1987 80.4263 24.1411 80.6264C24.0546 80.9694 23.8241 81.2267 23.507 81.3696C23.19 81.5125 22.7865 81.5125 22.3253 81.3982C22.0083 81.3124 21.7489 81.1981 21.5183 81.0266C21.3166 80.855 21.1436 80.6549 21.0572 80.4262C20.9707 80.1976 20.9707 79.9689 21.0283 79.7402L21.6912 79.9117C21.6336 80.1404 21.6912 80.3405 21.8353 80.512C21.9795 80.6835 22.1812 80.7979 22.4406 80.8836C22.7 80.9408 22.9018 80.9408 23.1035 80.8836C23.3053 80.8265 23.3917 80.6549 23.4494 80.4834Z" fill="#F3F243"/>
<path d="M24.6599 82.9992L24.3429 82.6562C24.6311 82.3989 24.8329 82.0845 24.9193 81.7414L25.0634 81.1411L25.7263 81.284L25.6111 81.8272C25.5534 82.0845 25.4381 82.3132 25.2652 82.5133C25.0634 82.7134 24.8617 82.8849 24.6599 82.9992Z" fill="#F3F243"/>
<path d="M31.0296 83.0847C31.0008 82.9989 31.0008 82.856 31.0008 82.6559C30.6261 82.9417 30.2226 83.0275 29.7614 82.9703C29.3579 82.9132 29.0697 82.7416 28.8391 82.4844C28.6086 82.2271 28.5509 81.9126 28.6086 81.5696C28.6662 81.1408 28.8968 80.8549 29.2426 80.6834C29.5885 80.5119 30.0785 80.4547 30.6549 80.5691L31.3178 80.6834L31.3755 80.369C31.4043 80.1403 31.3755 79.9402 31.2602 79.7686C31.1449 79.5971 30.9431 79.5114 30.6549 79.4542C30.3955 79.4256 30.1938 79.4542 30.0208 79.54C29.8479 79.6257 29.7326 79.7686 29.7038 79.9402L29.0121 79.8258C29.0409 79.6257 29.1562 79.4542 29.3291 79.2827C29.502 79.1111 29.7326 78.9968 29.992 78.9396C30.2514 78.8825 30.5396 78.8539 30.8279 78.911C31.289 78.9968 31.6349 79.1683 31.8654 79.4256C32.096 79.7115 32.1825 80.0259 32.1248 80.4547L31.8366 82.2842C31.779 82.6559 31.779 82.9417 31.8366 83.1704V83.2276L31.0296 83.0847ZM29.992 82.37C30.1938 82.3986 30.4243 82.37 30.6261 82.3128C30.8279 82.2271 31.0008 82.1127 31.1161 81.9412L31.2602 81.1122L30.7126 81.0264C29.8767 80.8835 29.4156 81.055 29.3291 81.5696C29.3003 81.7697 29.3291 81.9698 29.4732 82.1127C29.5885 82.2557 29.7614 82.3414 29.992 82.37Z" fill="#F3F243"/>
<path d="M35.2664 80.1689C35.1511 80.1403 35.0646 80.1117 34.9205 80.1117C34.4594 80.0545 34.1423 80.1974 33.9117 80.5691L33.5659 83.4277L32.8741 83.342L33.3641 79.3398L34.027 79.4256L33.9694 79.883C34.2288 79.5399 34.5746 79.4256 35.007 79.4542C35.1511 79.4828 35.2375 79.5114 35.2952 79.54L35.2664 80.1689Z" fill="#F3F243"/>
<path d="M37.2264 78.7681L37.1399 79.7401L37.8893 79.7972L37.8316 80.3404L37.0823 80.2832L36.8517 82.7702C36.8229 82.9418 36.8517 83.0561 36.9093 83.1419C36.967 83.2276 37.0823 83.2848 37.2552 83.2848C37.3417 83.2848 37.457 83.2848 37.6011 83.2562L37.5434 83.7994C37.3705 83.8279 37.1687 83.8279 36.9958 83.8279C36.6788 83.7994 36.4482 83.685 36.3329 83.4849C36.1888 83.2848 36.1311 82.9989 36.16 82.6845L36.3905 80.1975L35.6412 80.1403L35.6988 79.5971L36.4482 79.6543L36.5347 78.6824L37.2264 78.7681Z" fill="#F3F243"/>
<path d="M39.2149 83.9427L38.5232 83.8855L38.8114 79.8548L39.5031 79.912L39.2149 83.9427ZM38.8114 78.7971C38.8114 78.6828 38.8691 78.597 38.9267 78.5113C39.0132 78.4255 39.0996 78.3969 39.2437 78.4255C39.3879 78.4541 39.4743 78.4827 39.532 78.5684C39.5896 78.6542 39.6184 78.74 39.6184 78.8543C39.6184 78.9687 39.5608 79.0544 39.5031 79.1402C39.4167 79.1973 39.3302 79.2545 39.1861 79.2259C39.042 79.1974 38.9555 79.1688 38.8979 79.083C38.8402 78.9972 38.8114 78.9115 38.8114 78.7971Z" fill="#F3F243"/>
<path d="M42.9042 83.0563C42.9042 82.8562 42.8465 82.7133 42.7024 82.6275C42.5583 82.5132 42.3277 82.4274 41.9819 82.3417C41.636 82.2559 41.3478 82.1415 41.146 82.0558C40.9443 81.9414 40.8002 81.8271 40.7137 81.6556C40.6272 81.5126 40.5696 81.3411 40.5984 81.141C40.5984 80.798 40.7714 80.5407 41.0596 80.312C41.3478 80.0833 41.7225 79.9976 42.1548 79.9976C42.616 80.0261 42.9906 80.1405 43.2789 80.3978C43.5671 80.6551 43.6824 80.9409 43.6824 81.3125L42.9906 81.284C42.9906 81.0838 42.933 80.9409 42.7601 80.798C42.5871 80.6551 42.4142 80.5693 42.1548 80.5693C41.8954 80.5693 41.6937 80.5979 41.5495 80.7122C41.4054 80.8266 41.319 80.9695 41.319 81.141C41.319 81.3125 41.3766 81.4269 41.4919 81.5126C41.636 81.5984 41.8666 81.6842 42.2125 81.7699C42.5583 81.8557 42.8465 81.97 43.0483 82.0844C43.25 82.1987 43.423 82.3417 43.5094 82.4846C43.5959 82.6275 43.6536 82.8276 43.6536 83.0277C43.6536 83.3994 43.4806 83.6852 43.1924 83.8853C42.9042 84.0854 42.5007 84.1998 42.0395 84.1712C41.7225 84.1712 41.4343 84.0854 41.1749 83.9711C40.9155 83.8567 40.7425 83.6852 40.5984 83.4565C40.4543 83.2564 40.3967 83.0277 40.3967 82.7705L41.0884 82.799C41.0884 83.0277 41.1749 83.2278 41.3478 83.3708C41.5207 83.5137 41.7513 83.5995 42.0395 83.5995C42.2989 83.5995 42.5295 83.5709 42.6736 83.4565C42.8177 83.3422 42.9042 83.2278 42.9042 83.0563Z" fill="#F3F243"/>
<path d="M45.5847 79.1396V80.1116H46.3341V80.6547H45.5847V83.1703C45.5847 83.3419 45.6135 83.4562 45.6712 83.542C45.7288 83.6277 45.8441 83.6563 46.017 83.6563C46.1035 83.6563 46.2188 83.6563 46.3629 83.5991V84.1709C46.19 84.228 45.9882 84.2566 45.8153 84.2566C45.4982 84.2566 45.2677 84.1709 45.1236 83.9708C44.9795 83.7707 44.893 83.5134 44.893 83.1703V80.6547H44.1436V80.1116H44.893V79.1396H45.5847Z" fill="#F3F243"/>
<path d="M49.9655 83.9995C49.9079 83.9137 49.879 83.7708 49.8502 83.5707C49.562 83.9137 49.1873 84.1138 48.7262 84.1424C48.3226 84.171 47.9768 84.0852 47.7174 83.8851C47.458 83.685 47.2851 83.3992 47.2562 83.0561C47.2274 82.6273 47.3715 82.2843 47.6597 82.0556C47.9768 81.7983 48.4091 81.6554 48.9856 81.5982L49.6485 81.541L49.6196 81.2266C49.5908 80.9979 49.5044 80.7978 49.3602 80.6549C49.2161 80.5119 48.9856 80.4548 48.6973 80.4833C48.4379 80.5119 48.2362 80.5691 48.0921 80.712C47.9191 80.855 47.8615 80.9979 47.8615 81.1694L47.1698 81.2266C47.1409 81.0265 47.2274 80.8264 47.3427 80.6263C47.4868 80.4262 47.6597 80.2546 47.8903 80.1403C48.1209 80.026 48.4091 79.9402 48.6973 79.9116C49.1585 79.883 49.5332 79.9688 49.8214 80.1689C50.1096 80.369 50.2537 80.6834 50.3114 81.1122L50.4555 82.9704C50.4843 83.342 50.5419 83.6278 50.6572 83.8565V83.9137L49.9655 83.9995ZM48.755 83.5421C48.9856 83.5135 49.1873 83.4563 49.3602 83.342C49.562 83.2276 49.6773 83.0561 49.7637 82.8846L49.7061 82.0556L49.1585 82.0842C48.2938 82.1414 47.8903 82.4272 47.948 82.9132C47.9768 83.1419 48.0344 83.2848 48.2074 83.3992C48.3515 83.5135 48.5244 83.5707 48.755 83.5421Z" fill="#F3F243"/>
<path d="M55.1535 82.17L55.4705 78.9969L56.191 78.854L55.5281 83.7423C55.4129 84.457 55.0958 84.8572 54.5482 84.9715L54.4041 85.0001H54.1447L54.0294 84.457L54.2312 84.4284C54.4617 84.3712 54.6347 84.2854 54.7499 84.1711C54.8652 84.0567 54.9229 83.8566 54.9517 83.5994L55.0093 83.1706L52.7612 79.5401L53.5106 79.3972L55.1535 82.17Z" fill="#F3F243"/>
<path d="M59.3327 76.9958L59.6209 77.9392L60.3415 77.7391L60.4856 78.2537L59.7651 78.4538L60.4568 80.855C60.5144 80.998 60.5721 81.1123 60.6585 81.1695C60.745 81.2267 60.8603 81.2267 61.0332 81.1981C61.1197 81.1695 61.2062 81.1409 61.3503 81.0551L61.4944 81.5983C61.3214 81.684 61.1773 81.7698 61.0044 81.827C60.7162 81.9127 60.4568 81.8841 60.255 81.7412C60.0533 81.5983 59.9092 81.3696 59.7939 81.0551L59.1021 78.6539L58.3816 78.854L58.2375 78.3394L58.958 78.1393L58.6698 77.196L59.3327 76.9958Z" fill="#F3F243"/>
<path d="M61.5233 79.426C61.408 79.0544 61.3503 78.6827 61.408 78.3397C61.4656 77.9967 61.5809 77.6822 61.7827 77.4249C61.9844 77.1677 62.2727 76.9961 62.6185 76.8818C63.1373 76.7103 63.6273 76.7389 64.0884 76.9961C64.5496 77.2534 64.8666 77.6822 65.0684 78.2825L65.0972 78.3397C65.2125 78.7113 65.2701 79.0829 65.2125 79.426C65.1549 79.769 65.0396 80.0835 64.8378 80.3122C64.6361 80.5694 64.3478 80.741 64.002 80.8553C63.4832 81.0268 62.9932 80.9982 62.532 80.741C62.0709 80.4837 61.7539 80.0549 61.5521 79.4832L61.5233 79.426ZM62.215 79.2831C62.3591 79.7119 62.5609 80.0263 62.8491 80.1978C63.1373 80.3693 63.4544 80.4265 63.7714 80.3122C64.1173 80.1978 64.319 79.9691 64.4343 79.6547C64.5496 79.3402 64.5208 78.94 64.3478 78.454C64.2037 78.0253 64.002 77.7394 63.6849 77.5393C63.3967 77.3392 63.0797 77.3106 62.7626 77.4249C62.4456 77.5393 62.215 77.7394 62.0997 78.0824C62.0421 78.4255 62.0709 78.8257 62.215 79.2831Z" fill="#F3F243"/>
<path d="M67.3165 75.9382C67.2012 75.9668 67.1147 75.9954 66.9994 76.024C66.5671 76.1955 66.3653 76.4813 66.3365 76.8816L67.3741 79.5687L66.7112 79.826L65.2413 76.0526L65.8754 75.8239L66.0483 76.2527C66.1348 75.8239 66.3653 75.538 66.7688 75.3951C66.8841 75.3379 66.9994 75.3379 67.0859 75.3379L67.3165 75.9382Z" fill="#F3F243"/>
<path d="M68.3252 74.852L68.5558 75.3094C68.6999 74.8234 68.9881 74.4804 69.4492 74.3089C70.2563 73.9659 70.8327 74.2517 71.2074 75.1379L72.245 77.5963L71.6109 77.8536L70.5445 75.3952C70.4292 75.1379 70.2851 74.9664 70.1121 74.8806C69.9392 74.7949 69.7086 74.8234 69.4492 74.9378C69.2475 75.0236 69.0746 75.1665 68.9593 75.338C68.844 75.5095 68.7863 75.7096 68.7863 75.9383L69.9104 78.5969L69.2763 78.8541L67.6911 75.1379L68.3252 74.852Z" fill="#F3F243"/>
<path d="M74.9543 76.4528C74.4643 76.6815 73.9743 76.7101 73.5132 76.5386C73.052 76.3671 72.6773 75.9954 72.4179 75.4523L72.3603 75.338C72.1874 74.9663 72.1009 74.6233 72.1009 74.2803C72.1009 73.9372 72.1874 73.6228 72.3603 73.3369C72.5332 73.051 72.7638 72.8509 73.052 72.708C73.542 72.4793 73.9743 72.4793 74.4066 72.6508C74.839 72.8223 75.156 73.2226 75.4442 73.8229L75.5595 74.0802L73.052 75.2522C73.2249 75.5952 73.4843 75.8525 73.7726 75.9669C74.0896 76.0812 74.4066 76.0812 74.6949 75.9383C74.9254 75.8239 75.0984 75.7096 75.1848 75.5381C75.3001 75.3665 75.3866 75.195 75.4154 74.9949L75.9342 75.1093C75.9342 75.7096 75.5595 76.167 74.9543 76.4528ZM73.3114 73.194C73.052 73.3083 72.8791 73.5084 72.7926 73.7657C72.7062 74.023 72.735 74.3374 72.8503 74.6805L74.6949 73.8229L74.666 73.7657C74.4931 73.4512 74.2914 73.2511 74.0608 73.1368C73.8302 73.0796 73.5708 73.0796 73.3114 73.194Z" fill="#F3F243"/>
<path d="M76.1359 73.5368C75.963 73.1937 75.8477 72.8221 75.8477 72.4791C75.8477 72.136 75.9054 71.8216 76.0783 71.5357C76.2512 71.2498 76.4818 71.0211 76.7988 70.8782C77.2888 70.6209 77.7788 70.5924 78.2688 70.7639C78.7587 70.9354 79.1334 71.307 79.4216 71.8787L79.4505 71.9359C79.6234 72.279 79.7387 72.622 79.7387 72.9936C79.7387 73.3652 79.681 73.6511 79.5081 73.937C79.3352 74.2228 79.1046 74.4515 78.7587 74.623C78.2688 74.8803 77.7788 74.9089 77.2888 74.7374C76.7988 74.5659 76.4242 74.1943 76.1359 73.6225V73.5368ZM76.77 73.2795C76.9718 73.6797 77.2312 73.937 77.5482 74.0799C77.8653 74.2228 78.1823 74.2228 78.4705 74.0513C78.7876 73.8798 78.9605 73.6511 79.0181 73.3081C79.0758 72.965 78.9893 72.5648 78.7587 72.136C78.557 71.7358 78.2976 71.4785 77.9805 71.3356C77.6635 71.1927 77.3465 71.1927 77.0294 71.3642C76.7124 71.5357 76.5394 71.7644 76.4818 72.1074C76.453 72.4219 76.5394 72.8221 76.77 73.2795Z" fill="#F3F243"/>
<path d="M82.8227 71.0215C82.7363 70.8499 82.5922 70.7642 82.4192 70.7642C82.2463 70.7356 81.9869 70.7928 81.641 70.9071C81.2952 71.0215 81.007 71.0786 80.7764 71.0786C80.5458 71.0786 80.3441 71.0501 80.1999 70.9929C80.027 70.9071 79.9117 70.7928 79.7964 70.6213C79.6235 70.3354 79.6235 70.0209 79.7388 69.6779C79.8541 69.3349 80.1135 69.049 80.4882 68.8489C80.8917 68.6202 81.2664 68.5344 81.641 68.5916C82.0157 68.6488 82.2751 68.8489 82.4769 69.1633L81.8716 69.5064C81.7852 69.3349 81.6122 69.2491 81.4105 69.1919C81.2087 69.1633 80.9781 69.1919 80.7764 69.3063C80.5458 69.4206 80.4017 69.5921 80.3441 69.7351C80.2864 69.9066 80.2864 70.0495 80.3729 70.221C80.4593 70.364 80.5746 70.4497 80.7476 70.4497C80.9205 70.4497 81.1511 70.4211 81.4969 70.3068C81.8428 70.1925 82.131 70.1353 82.3616 70.1353C82.5922 70.1067 82.7939 70.1639 82.9669 70.221C83.1398 70.3068 83.2839 70.4212 83.3704 70.6213C83.5433 70.9357 83.5721 71.2502 83.428 71.5932C83.2839 71.9362 83.0245 72.2221 82.621 72.4508C82.3328 72.6223 82.0734 72.7081 81.7852 72.7367C81.4969 72.7652 81.2664 72.7081 81.0358 72.6223C80.8052 72.5366 80.6323 72.365 80.517 72.1649L81.1222 71.8219C81.2375 72.022 81.4105 72.1363 81.641 72.1649C81.8716 72.1935 82.1022 72.1363 82.3328 71.9934C82.5633 71.8505 82.7075 71.7075 82.7939 71.536C82.9092 71.3359 82.9092 71.1644 82.8227 71.0215Z" fill="#F3F243"/>
</svg>
